<?xml version="1.0" encoding="UTF-8"?>
<svg xmlns="http://www.w3.org/2000/svg" width="241" height="51" viewBox="0 0 241 51" fill="none">
  <path d="M33.1258 7.34418H7.2427V25.2608H28.229V31.6497H7.2427V49.5664H0.666992V0.955293H33.1258V7.34418Z" fill="white"></path>
  <path d="M71.6654 16.2331V49.5664H65.6493V45.6775C64.157 47.2979 62.4081 48.571 60.4027 49.497C58.3974 50.3766 56.2288 50.8164 53.897 50.8164C51.5652 50.8164 49.3733 50.3534 47.3213 49.4275C45.3159 48.5016 43.5437 47.2284 42.0047 45.6081C40.5124 43.9877 39.3232 42.0896 38.4371 39.9136C37.551 37.7377 37.1079 35.3997 37.1079 32.8997C37.1079 30.446 37.551 28.1312 38.4371 25.9553C39.3232 23.7794 40.5124 21.8812 42.0047 20.2608C43.5437 18.6405 45.3159 17.3673 47.3213 16.4414C49.3733 15.4692 51.5652 14.9831 53.897 14.9831C56.2288 14.9831 58.3974 15.446 60.4027 16.372C62.4081 17.2516 64.157 18.5016 65.6493 20.122V16.2331H71.6654ZM54.3867 45.0525C55.9257 45.0525 57.3714 44.7284 58.7238 44.0803C60.1229 43.4321 61.3355 42.5757 62.3615 41.5108C63.3875 40.3997 64.1803 39.1034 64.7399 37.622C65.3462 36.1405 65.6493 34.5664 65.6493 32.8997C65.6493 31.2331 65.3462 29.659 64.7399 28.1775C64.1803 26.696 63.3875 25.4229 62.3615 24.3581C61.3355 23.247 60.1229 22.3673 58.7238 21.7192C57.3714 21.071 55.9257 20.747 54.3867 20.747C52.8477 20.747 51.3786 21.071 49.9795 21.7192C48.6271 22.3673 47.4379 23.247 46.4119 24.3581C45.3859 25.4229 44.5697 26.696 43.9635 28.1775C43.3572 29.659 43.0541 31.2331 43.0541 32.8997C43.0541 34.5664 43.3572 36.1405 43.9635 37.622C44.5697 39.1034 45.3859 40.3997 46.4119 41.5108C47.4379 42.5757 48.6271 43.4321 49.9795 44.0803C51.3786 44.7284 52.8477 45.0525 54.3867 45.0525Z" fill="white"></path>
  <path d="M80.1246 39.5664C79.9381 38.6868 79.8448 37.8766 79.8448 37.1359V16.2331H85.7909V35.8859C85.7909 36.6729 85.8609 37.5988 86.0008 38.6636C86.1873 39.7284 86.5604 40.747 87.12 41.7192C87.6797 42.6914 88.4958 43.5247 89.5684 44.2192C90.6877 44.9136 92.1801 45.2609 94.0455 45.2609C96.2841 45.2609 98.0796 44.9136 99.432 44.2192C100.784 43.5247 101.81 42.7146 102.51 41.7886C103.21 40.8627 103.676 39.9136 103.909 38.9414C104.142 37.9692 104.282 37.2053 104.329 36.6497V16.2331H110.345V49.5664H104.329V46.5803C104.329 46.5803 104.096 46.8118 103.629 47.2747C103.21 47.7377 102.557 48.2238 101.671 48.7331C100.831 49.2423 99.7585 49.7053 98.4527 50.122C97.1935 50.5849 95.7011 50.8164 93.9756 50.8164C91.4106 50.8164 89.2886 50.4229 87.6097 49.6358C85.9308 48.8951 84.555 47.9692 83.4824 46.8581C82.4564 45.7007 81.6869 44.4738 81.1739 43.1775C80.6609 41.8349 80.3111 40.6312 80.1246 39.5664Z" fill="white"></path>
  <path d="M135.501 14.9136C136.993 14.9136 138.346 15.0525 139.558 15.3303L138.719 21.0247C137.879 20.7007 136.783 20.5386 135.431 20.5386C133.192 20.5386 131.397 20.8859 130.044 21.5803C128.739 22.2284 127.713 23.0386 126.966 24.0108C126.267 24.9368 125.8 25.8859 125.567 26.8581C125.334 27.784 125.194 28.5247 125.148 29.0803V49.5664H119.201V16.2331H125.148V19.2192C125.194 19.1729 125.427 18.9414 125.847 18.5247C126.313 18.0618 126.966 17.5757 127.806 17.0664C128.645 16.5109 129.695 16.0247 130.954 15.6081C132.26 15.1451 133.775 14.9136 135.501 14.9136Z" fill="white"></path>
  <path d="M146.592 34.497C146.779 35.9784 147.175 37.3673 147.781 38.6636C148.434 39.9599 149.227 41.071 150.16 41.997C151.139 42.9229 152.235 43.6636 153.448 44.2192C154.707 44.7747 156.036 45.0525 157.435 45.0525C159.58 45.0525 161.516 44.5433 163.241 43.5247C165.013 42.5062 166.436 41.1405 167.508 39.4275L172.405 42.5525C170.82 45.0525 168.721 47.0664 166.109 48.5942C163.498 50.0757 160.606 50.8164 157.435 50.8164C155.243 50.8164 153.168 50.3997 151.209 49.5664C149.297 48.7331 147.595 47.5988 146.102 46.1636C144.61 44.6821 143.374 42.946 142.395 40.9553C141.462 38.9646 140.902 36.8118 140.716 34.497C140.716 34.2655 140.693 34.0109 140.646 33.7331C140.646 33.4553 140.646 33.1775 140.646 32.8997C140.646 31.4183 140.809 30.0294 141.136 28.7331C141.555 26.7886 142.278 24.9831 143.304 23.3164C144.33 21.6034 145.543 20.1451 146.942 18.9414C148.388 17.6914 149.996 16.7192 151.769 16.0247C153.587 15.3303 155.476 14.9831 157.435 14.9831C159.394 14.9831 161.259 15.3303 163.031 16.0247C164.85 16.7192 166.459 17.6914 167.858 18.9414C169.304 20.1451 170.54 21.6034 171.566 23.3164C172.592 24.9831 173.315 26.7886 173.734 28.7331C174.061 30.0294 174.224 31.4183 174.224 32.8997C174.224 33.1775 174.224 33.4553 174.224 33.7331C174.224 34.0109 174.201 34.2655 174.154 34.497H146.592ZM167.718 28.7331C166.925 26.372 165.596 24.4507 163.731 22.9692C161.912 21.4877 159.813 20.747 157.435 20.747C155.056 20.747 152.935 21.4877 151.069 22.9692C149.25 24.4507 147.944 26.372 147.152 28.7331H167.718Z" fill="white"></path>
  <path d="M186.902 49.5664H180.956V0.816406H186.902V49.5664Z" fill="white"></path>
  <path d="M201.718 49.5664H195.771V0.816406H201.718V49.5664Z" fill="white"></path>
  <path d="M213.035 34.497C213.222 35.9784 213.618 37.3673 214.224 38.6636C214.877 39.9599 215.67 41.071 216.603 41.997C217.582 42.9229 218.678 43.6636 219.891 44.2192C221.15 44.7747 222.479 45.0525 223.878 45.0525C226.023 45.0525 227.959 44.5433 229.684 43.5247C231.456 42.5062 232.879 41.1405 233.951 39.4275L238.848 42.5525C237.263 45.0525 235.164 47.0664 232.552 48.5942C229.941 50.0757 227.049 50.8164 223.878 50.8164C221.686 50.8164 219.611 50.3997 217.652 49.5664C215.74 48.7331 214.038 47.5988 212.545 46.1636C211.053 44.6821 209.817 42.946 208.838 40.9553C207.905 38.9646 207.345 36.8118 207.159 34.497C207.159 34.2655 207.136 34.0109 207.089 33.7331C207.089 33.4553 207.089 33.1775 207.089 32.8997C207.089 31.4183 207.252 30.0294 207.579 28.7331C207.998 26.7886 208.721 24.9831 209.747 23.3164C210.773 21.6034 211.986 20.1451 213.385 18.9414C214.831 17.6914 216.439 16.7192 218.212 16.0247C220.03 15.3303 221.919 14.9831 223.878 14.9831C225.837 14.9831 227.702 15.3303 229.474 16.0247C231.293 16.7192 232.902 17.6914 234.301 18.9414C235.747 20.1451 236.983 21.6034 238.009 23.3164C239.035 24.9831 239.758 26.7886 240.177 28.7331C240.504 30.0294 240.667 31.4183 240.667 32.8997C240.667 33.1775 240.667 33.4553 240.667 33.7331C240.667 34.0109 240.644 34.2655 240.597 34.497H213.035ZM234.161 28.7331C233.368 26.372 232.039 24.4507 230.174 22.9692C228.355 21.4877 226.256 20.747 223.878 20.747C221.499 20.747 219.378 21.4877 217.512 22.9692C215.693 24.4507 214.387 26.372 213.595 28.7331H234.161Z" fill="white"></path>
</svg>
