<?xml version="1.0" encoding="UTF-8"?>
<svg xmlns="http://www.w3.org/2000/svg" width="241" height="104" viewBox="0 0 241 104" fill="none">
  <path d="M15.7632 46.1529C15.5966 46.1529 15.4092 46.0905 15.201 45.9658C14.9927 45.8411 14.847 45.5708 14.7637 45.155L4.89335 5.6149C4.60182 4.45074 4.26864 3.63998 3.89382 3.18263C3.56065 2.72527 2.97759 2.41344 2.14465 2.24713L1.20759 2.06004C0.624536 1.9353 0.333008 1.66505 0.333008 1.24927C0.333008 0.833501 0.64536 0.625614 1.27006 0.625614H11.9525C12.5356 0.625614 12.8271 0.854289 12.8271 1.31164C12.8271 1.76899 12.4731 2.01846 11.7651 2.06004L10.5782 2.18477C9.87016 2.22635 9.41204 2.45502 9.20381 2.8708C9.03722 3.24499 9.05804 3.88944 9.26628 4.80414L16.5128 34.8023C16.5961 35.0517 16.7211 35.1765 16.8877 35.1765C17.0959 35.1765 17.2208 35.0517 17.2625 34.8023L24.4466 6.11383C25.0296 3.74392 24.4049 2.43423 22.5725 2.18477L21.6354 2.06004C20.9274 1.9353 20.5734 1.68584 20.5734 1.31164C20.5734 0.854289 20.865 0.625614 21.448 0.625614H30.1939C30.8186 0.625614 31.1309 0.833501 31.1309 1.24927C31.1309 1.66505 30.8394 1.9353 30.2563 2.06004L29.3193 2.24713C28.528 2.41344 27.9033 2.82922 27.4452 3.49446C27.0287 4.11812 26.6747 5.01203 26.3832 6.1762L16.7003 45.155C16.617 45.5708 16.4712 45.8411 16.263 45.9658C16.0964 46.0905 15.9298 46.1529 15.7632 46.1529Z" fill="white"></path>
  <path d="M31.1563 45.5292C30.5316 45.5292 30.2192 45.3006 30.2192 44.8432C30.2192 44.469 30.4899 44.2196 31.0314 44.0948L32.4682 43.8453C33.3428 43.679 33.905 43.4504 34.1549 43.1593C34.4464 42.8683 34.5922 42.2862 34.5922 41.4131V4.74178C34.5922 3.86865 34.4464 3.28657 34.1549 2.99553C33.905 2.70449 33.3428 2.47581 32.4682 2.3095L31.0314 2.06004C30.4899 1.9353 30.2192 1.68584 30.2192 1.31164C30.2192 0.854289 30.5316 0.625614 31.1563 0.625614H42.4634C43.0882 0.625614 43.4005 0.854289 43.4005 1.31164C43.4005 1.68584 43.1298 1.9353 42.5884 2.06004L41.1516 2.3095C40.277 2.47581 39.6939 2.70449 39.4024 2.99553C39.1525 3.28657 39.0276 3.86865 39.0276 4.74178V41.4131C39.0276 42.2862 39.1525 42.8683 39.4024 43.1593C39.6939 43.4504 40.277 43.679 41.1516 43.8453L42.5884 44.0948C43.1298 44.2196 43.4005 44.469 43.4005 44.8432C43.4005 45.3006 43.0882 45.5292 42.4634 45.5292H31.1563Z" fill="white"></path>
  <path d="M56.0835 46.0905C55.2505 46.0905 54.3135 46.0074 53.2723 45.8411C52.2728 45.6748 51.3149 45.4669 50.3987 45.2174C49.5241 44.9679 48.8369 44.6977 48.3371 44.4066C48.0456 44.2403 47.8165 44.074 47.65 43.9077C47.525 43.6998 47.4625 43.3672 47.4625 42.9099L47.1502 33.1184C47.1502 32.2868 47.4209 31.8711 47.9623 31.8711C48.4204 31.8711 48.7328 32.2452 48.8994 32.9936L49.4616 35.3636C50.8776 41.3091 53.5222 44.2819 57.3953 44.2819C59.4777 44.2819 61.1227 43.5959 62.3305 42.2238C63.5799 40.8102 64.2046 38.8353 64.2046 36.299C64.2046 33.846 63.5591 31.5592 62.268 29.4388C61.0186 27.3183 58.9987 25.2187 56.2084 23.1398C53.1265 20.9362 50.8776 18.8157 49.4616 16.7784C48.0456 14.6996 47.3376 12.496 47.3376 10.1676C47.3376 7.0909 48.3996 4.63784 50.5236 2.80843C52.6892 0.937444 55.4379 0.00195312 58.7697 0.00195312C60.0191 0.00195312 61.2269 0.147473 62.393 0.438514C63.5591 0.729557 64.517 1.14533 65.2666 1.68584C65.5165 1.85215 65.7039 2.03925 65.8288 2.24713C65.9954 2.45502 66.0787 2.72527 66.0787 3.05789L66.2661 12.4752C66.2661 13.182 65.9954 13.5354 65.454 13.5354C65.0792 13.5354 64.8085 13.2444 64.6419 12.6623L64.2046 11.1031C63.2884 7.90166 62.3305 5.57333 61.331 4.11812C60.3731 2.62133 58.9779 1.87294 57.1455 1.87294C55.3546 1.87294 53.9178 2.45502 52.835 3.61919C51.7938 4.78336 51.2732 6.42566 51.2732 8.54611C51.2732 10.3339 51.8563 12.0386 53.0224 13.6601C54.1885 15.2817 56.2292 17.2566 59.1445 19.5849C62.268 22.1211 64.5378 24.5742 65.9538 26.9441C67.4114 29.2725 68.1403 31.7671 68.1403 34.4281C68.1403 36.7564 67.6197 38.7937 66.5785 40.5399C65.5373 42.2862 64.1005 43.6582 62.268 44.6561C60.4772 45.6124 58.4157 46.0905 56.0835 46.0905Z" fill="white"></path>
  <path d="M71.7865 45.5292C71.1618 45.5292 70.8494 45.3006 70.8494 44.8432C70.8494 44.469 71.1201 44.2196 71.6615 44.0948L73.0984 43.8453C73.9729 43.679 74.5352 43.4504 74.785 43.1593C75.0766 42.8683 75.2223 42.2862 75.2223 41.4131V4.74178C75.2223 3.86865 75.0766 3.28657 74.785 2.99553C74.5352 2.70449 73.9729 2.47581 73.0984 2.3095L71.6615 2.06004C71.1201 1.9353 70.8494 1.68584 70.8494 1.31164C70.8494 0.854289 71.1618 0.625614 71.7865 0.625614H83.0936C83.7183 0.625614 84.0307 0.854289 84.0307 1.31164C84.0307 1.68584 83.76 1.9353 83.2186 2.06004L81.7817 2.3095C80.9072 2.47581 80.3241 2.70449 80.0326 2.99553C79.7827 3.28657 79.6577 3.86865 79.6577 4.74178V41.4131C79.6577 42.2862 79.7827 42.8683 80.0326 43.1593C80.3241 43.4504 80.9072 43.679 81.7817 43.8453L83.2186 44.0948C83.76 44.2196 84.0307 44.469 84.0307 44.8432C84.0307 45.3006 83.7183 45.5292 83.0936 45.5292H71.7865Z" fill="white"></path>
  <path d="M102.086 46.0905C100.087 46.0905 98.2129 45.5084 96.4637 44.3443C94.7146 43.1385 93.1736 41.4962 91.8409 39.4174C90.5499 37.3385 89.5295 34.9062 88.7799 32.1205C88.0719 29.2932 87.7179 26.2581 87.7179 23.0151C87.7179 19.772 88.0719 16.7577 88.7799 13.972C89.5295 11.1863 90.5499 8.754 91.8409 6.67513C93.1736 4.55468 94.7146 2.91237 96.4637 1.7482C98.2129 0.584037 100.087 0.00195312 102.086 0.00195312C104.085 0.00195312 105.938 0.584037 107.646 1.7482C109.395 2.91237 110.936 4.55468 112.269 6.67513C113.601 8.754 114.622 11.1863 115.33 13.972C116.079 16.7577 116.454 19.772 116.454 23.0151C116.454 26.2581 116.079 29.2932 115.33 32.1205C114.622 34.9062 113.601 37.3385 112.269 39.4174C110.936 41.4962 109.395 43.1385 107.646 44.3443C105.938 45.5084 104.085 46.0905 102.086 46.0905ZM102.086 44.4066C105.043 44.4066 107.354 42.6396 109.02 39.1055C110.686 35.5714 111.519 30.208 111.519 23.0151C111.519 15.8222 110.686 10.4795 109.02 6.98696C107.354 3.45288 105.043 1.68584 102.086 1.68584C99.1708 1.68584 96.8594 3.45288 95.1519 6.98696C93.486 10.4795 92.6531 15.8222 92.6531 23.0151C92.6531 30.208 93.486 35.5714 95.1519 39.1055C96.8594 42.6396 99.1708 44.4066 102.086 44.4066Z" fill="white"></path>
  <path d="M145.267 46.0905C144.601 46.0905 144.039 45.5916 143.581 44.5937L126.651 7.92245C126.526 7.63141 126.36 7.50668 126.151 7.54826C125.985 7.58983 125.901 7.77693 125.901 8.10955V40.1657C125.901 41.3299 126.089 42.2238 126.464 42.8475C126.88 43.4296 127.609 43.8038 128.65 43.9701L129.462 44.0948C130.004 44.1364 130.274 44.3859 130.274 44.8432C130.274 45.3006 129.962 45.5292 129.337 45.5292H120.404C119.779 45.5292 119.467 45.3006 119.467 44.8432C119.467 44.3859 119.738 44.1364 120.279 44.0948L121.091 43.9701C122.174 43.8038 122.924 43.4296 123.34 42.8475C123.757 42.2238 123.965 41.3299 123.965 40.1657V4.74178C123.965 3.86865 123.819 3.28657 123.528 2.99553C123.278 2.70449 122.674 2.47581 121.716 2.3095L120.279 2.06004C119.738 1.9353 119.467 1.68584 119.467 1.31164C119.467 0.854289 119.779 0.625614 120.404 0.625614H127.088C128.13 0.625614 128.858 1.08297 129.275 1.99767L144.018 34.3657C144.143 34.6152 144.289 34.7191 144.455 34.6775C144.663 34.636 144.768 34.4904 144.768 34.241V5.9891C144.768 4.65863 144.538 3.74392 144.08 3.24499C143.622 2.70448 143.039 2.37187 142.331 2.24713L141.207 2.06004C140.665 1.9353 140.395 1.68584 140.395 1.31164C140.395 0.854289 140.707 0.625614 141.332 0.625614H150.265C150.89 0.625614 151.202 0.854289 151.202 1.31164C151.202 1.76899 150.931 2.01846 150.39 2.06004L149.578 2.18477C148.495 2.35108 147.745 2.70448 147.329 3.24499C146.912 3.74392 146.704 4.65863 146.704 5.9891V44.0948C146.704 44.8432 146.558 45.3629 146.267 45.654C146.017 45.945 145.684 46.0905 145.267 46.0905Z" fill="white"></path>
  <path d="M150.796 45.5292C150.172 45.5292 149.859 45.3214 149.859 44.9056C149.859 44.4898 150.151 44.2196 150.734 44.0948L151.671 43.9077C152.504 43.7414 153.129 43.3464 153.545 42.7228C153.962 42.0575 154.316 41.1428 154.607 39.9786L164.29 0.99981C164.373 0.584036 164.498 0.313782 164.665 0.189049C164.873 0.0643185 165.06 0.00195312 165.227 0.00195312C165.435 0.00195312 165.623 0.0643185 165.789 0.189049C165.998 0.313782 166.143 0.584036 166.227 0.99981L176.097 40.5399C176.388 41.7041 176.722 42.5149 177.096 42.9722C177.471 43.4296 178.054 43.7414 178.846 43.9077L179.783 44.0948C180.366 44.2196 180.657 44.4898 180.657 44.9056C180.657 45.3214 180.345 45.5292 179.72 45.5292H169.038C168.455 45.5292 168.163 45.3006 168.163 44.8432C168.163 44.3859 168.517 44.1364 169.225 44.0948L170.412 43.9701C171.12 43.8869 171.557 43.6583 171.724 43.2841C171.932 42.9099 171.932 42.2654 171.724 41.3507L169.35 31.684C169.1 30.6029 168.413 30.0624 167.289 30.0624H160.729C159.646 30.0624 158.959 30.6029 158.668 31.684L156.544 40.041C155.919 42.4109 156.544 43.7206 158.418 43.9701L159.355 44.0948C160.063 44.2196 160.417 44.469 160.417 44.8432C160.417 45.3006 160.125 45.5292 159.542 45.5292H150.796ZM160.542 28.1914H167.414C168.08 28.1914 168.351 27.838 168.226 27.1312L164.228 10.4171H163.915L159.73 27.1312C159.605 27.838 159.875 28.1914 160.542 28.1914Z" fill="white"></path>
  <path d="M207.036 46.0905C203.413 46.0905 201.102 43.7206 200.102 38.9808L198.665 32.0582C198.207 29.813 197.687 28.1083 197.104 26.9441C196.562 25.78 195.792 24.99 194.792 24.5742C193.834 24.1584 192.502 23.9506 190.794 23.9506C190.211 23.9506 189.753 24.1169 189.42 24.4495C189.087 24.7405 188.92 25.1147 188.92 25.5721V41.1636C188.92 42.0367 189.087 42.6396 189.42 42.9722C189.753 43.2633 190.503 43.5127 191.669 43.7206L193.98 44.0948C194.438 44.178 194.667 44.4066 194.667 44.7808C194.667 45.2798 194.355 45.5292 193.73 45.5292H181.049C180.424 45.5292 180.112 45.3006 180.112 44.8432C180.112 44.469 180.382 44.2196 180.924 44.0948L182.361 43.8453C183.235 43.679 183.797 43.4504 184.047 43.1593C184.339 42.8683 184.485 42.2862 184.485 41.4131V4.74178C184.485 3.86865 184.339 3.28657 184.047 2.99553C183.797 2.70449 183.235 2.47581 182.361 2.3095L180.924 2.06004C180.382 1.9353 180.112 1.68584 180.112 1.31164C180.112 0.854289 180.424 0.625614 181.049 0.625614H193.73C196.187 0.625614 198.374 1.10375 200.29 2.06004C202.205 3.01632 203.705 4.34679 204.787 6.05147C205.87 7.71456 206.412 9.64791 206.412 11.8515C206.412 14.4709 205.62 16.8408 204.038 18.9613C202.455 21.0401 200.456 22.5161 198.041 23.3893C197.749 23.4724 197.583 23.6179 197.541 23.8258C197.541 23.9921 197.687 24.1377 197.978 24.2624C199.311 24.886 200.352 25.7592 201.102 26.8818C201.893 28.0044 202.497 29.5011 202.913 31.3721L204.288 37.7335C204.746 39.8955 205.287 41.4339 205.912 42.3486C206.537 43.2633 207.328 43.7206 208.286 43.7206C208.619 43.7206 208.911 43.679 209.16 43.5959C209.452 43.4712 209.806 43.2633 210.222 42.9722C210.556 42.7643 210.868 42.7228 211.159 42.8475C211.451 42.9306 211.597 43.1385 211.597 43.4712C211.597 44.178 211.139 44.8016 210.222 45.3421C209.306 45.8411 208.244 46.0905 207.036 46.0905ZM193.105 22.3914C195.937 22.3914 198.082 21.4559 199.54 19.5849C200.998 17.6724 201.726 15.1361 201.726 11.9763C201.726 8.89952 200.873 6.50882 199.165 4.80414C197.499 3.05789 195.188 2.18477 192.231 2.18477C190.024 2.18477 188.92 3.01631 188.92 4.67941V18.9613C188.92 21.248 190.315 22.3914 193.105 22.3914Z" fill="white"></path>
  <path d="M217.118 45.5292C216.493 45.5292 216.18 45.3006 216.18 44.8432C216.18 44.3859 216.451 44.1364 216.993 44.0948L219.804 43.6583C220.637 43.5335 221.199 43.3256 221.49 43.0346C221.782 42.702 221.928 42.0991 221.928 41.226V26.5076C221.928 25.5929 221.72 24.6989 221.303 23.8258L212.12 4.61705C211.828 3.91023 211.495 3.36972 211.12 2.99553C210.746 2.62133 210.204 2.35108 209.496 2.18477L208.934 2.06004C208.351 1.9353 208.059 1.66505 208.059 1.24927C208.059 0.833501 208.372 0.625614 208.996 0.625614H219.679C220.262 0.625614 220.553 0.854289 220.553 1.31164C220.553 1.76899 220.199 2.01846 219.491 2.06004L218.304 2.18477C217.596 2.22635 217.097 2.45502 216.805 2.8708C216.514 3.28657 216.576 3.93102 216.993 4.80414L224.676 21.1441C224.843 21.4351 225.051 21.5806 225.301 21.5806C225.551 21.5806 225.759 21.4351 225.926 21.1441L233.297 6.11383C233.839 5.03282 233.964 4.15969 233.672 3.49446C233.422 2.78764 232.818 2.37187 231.861 2.24713L230.486 2.06004C229.778 1.9353 229.424 1.68584 229.424 1.31164C229.424 0.854289 229.716 0.625614 230.299 0.625614H239.17C239.794 0.625614 240.107 0.833501 240.107 1.24927C240.107 1.66505 239.815 1.9353 239.232 2.06004L238.607 2.18477C238.024 2.3095 237.504 2.66291 237.046 3.24499C236.629 3.82708 236.067 4.80414 235.359 6.1762L227.175 22.5785C226.884 23.1606 226.676 23.7219 226.551 24.2624C226.426 24.7613 226.363 25.3434 226.363 26.0086V41.226C226.363 42.0991 226.509 42.702 226.8 43.0346C227.134 43.3256 227.696 43.5335 228.487 43.6583L231.298 44.0948C231.84 44.1364 232.11 44.3859 232.11 44.8432C232.11 45.3006 231.798 45.5292 231.173 45.5292H217.118Z" fill="white"></path>
  <path d="M53.4441 104.002C52.278 104.002 51.0286 103.877 49.6959 103.628C48.4048 103.378 47.1762 103.046 46.0101 102.63C44.8856 102.173 43.9902 101.653 43.3239 101.071C43.1156 100.863 42.9699 100.655 42.8866 100.447C42.8449 100.239 42.8658 99.9274 42.9491 99.5116L44.6982 89.7201C44.8232 88.9717 45.1563 88.5975 45.6978 88.5975C46.1975 88.5975 46.4474 89.0133 46.4474 89.8448L46.5099 92.2771C46.5932 95.7696 47.197 98.285 48.3215 99.8234C49.446 101.362 51.2784 102.131 53.8189 102.131C56.1511 102.131 58.0877 101.299 59.6287 99.6363C61.1696 97.9316 61.9401 95.6657 61.9401 92.8384C61.9401 91.009 61.4403 89.0964 60.4408 87.1007C59.4412 85.105 58.0461 83.1093 56.2553 81.1136C54.1313 78.7437 52.5487 76.5816 51.5075 74.6275C50.508 72.6734 50.0082 70.6153 50.0082 68.4532C50.0082 66.7486 50.4247 65.1063 51.2576 63.5263C52.0906 61.9048 53.34 60.5743 55.0058 59.5349C56.7134 58.4539 58.879 57.9134 61.5028 57.9134C65.1261 57.9134 67.8956 58.7241 69.8113 60.3456C70.3944 60.803 70.6026 61.489 70.436 62.4037L68.6869 71.5092C68.5619 72.1329 68.2704 72.4447 67.8123 72.4447C67.3542 72.4447 67.0835 72.0913 67.0002 71.3845L66.9377 70.0748C66.7711 66.707 66.2922 64.15 65.5009 62.4037C64.7512 60.6159 63.2311 59.722 60.9405 59.722C59.2747 59.722 57.942 60.0962 56.9424 60.8446C55.9429 61.593 55.2141 62.5285 54.756 63.6511C54.2979 64.7321 54.0688 65.8131 54.0688 66.8941C54.0688 68.0998 54.2354 69.264 54.5686 70.3866C54.9017 71.4676 55.464 72.6318 56.2553 73.8791C57.0882 75.0848 58.2127 76.5608 59.6287 78.3071C61.6277 80.677 63.1895 82.943 64.3139 85.105C65.4384 87.267 66.0006 89.3667 66.0006 91.404C66.0006 93.8571 65.4384 96.0399 64.3139 97.9524C63.2311 99.8234 61.7527 101.299 59.8785 102.38C58.0044 103.461 55.8596 104.002 53.4441 104.002Z" fill="white"></path>
  <path d="M72.686 103.441C72.1029 103.441 71.8114 103.233 71.8114 102.817C71.8114 102.401 72.1445 102.131 72.8109 102.006L75.4346 101.57C76.2676 101.445 76.8923 101.237 77.3088 100.946C77.7252 100.613 78.0168 100.011 78.1833 99.1374L86.8667 61.7177C86.9917 61.1356 86.9292 60.7198 86.6793 60.4704C86.4711 60.2209 85.9713 60.0962 85.18 60.0962C83.764 60.0962 82.2023 60.6783 80.4948 61.8424C78.8289 62.965 77.3296 65.0855 75.9969 68.2038L74.9974 70.5737C74.7891 71.1142 74.4351 71.3845 73.9354 71.3845C73.3523 71.3845 73.1649 71.0311 73.3731 70.3242L76.4967 59.036C76.7465 58.0797 77.2046 57.6015 77.871 57.6015C78.2458 57.6015 78.5373 57.6847 78.7456 57.851C78.9955 57.9757 79.3911 58.1213 79.9325 58.2876C80.4739 58.4539 81.411 58.537 82.7437 58.537H96.6746C98.0073 58.537 98.986 58.4539 99.6107 58.2876C100.277 58.1213 100.756 57.9757 101.048 57.851C101.381 57.6847 101.672 57.6015 101.922 57.6015C102.63 57.6015 102.88 58.0797 102.672 59.036L100.673 70.3242C100.548 71.0311 100.194 71.3845 99.6107 71.3845C99.0693 71.3845 98.8402 71.1142 98.9235 70.5737L99.0485 69.0145C99.2983 65.9378 98.9027 63.6926 97.8615 62.279C96.8204 60.8238 95.3627 60.0962 93.4886 60.0962C92.6973 60.0962 92.1351 60.2209 91.8019 60.4704C91.5104 60.7198 91.3021 61.1356 91.1772 61.7177L82.4938 99.1374C82.2856 100.011 82.3064 100.613 82.5563 100.946C82.8478 101.237 83.3892 101.445 84.1805 101.57L87.1166 102.006C87.5747 102.048 87.8038 102.276 87.8038 102.692C87.8038 103.191 87.4706 103.441 86.8043 103.441H72.686Z" fill="white"></path>
  <path d="M111.476 104.002C109.227 104.002 107.311 103.482 105.729 102.443C104.146 101.362 103.022 99.8858 102.355 98.0148C101.731 96.1022 101.71 93.9194 102.293 91.4664L108.977 62.6532C109.186 61.7801 109.186 61.198 108.977 60.9069C108.769 60.6159 108.249 60.3872 107.416 60.2209L106.166 59.9715C105.625 59.8467 105.354 59.618 105.354 59.2854C105.354 58.7865 105.729 58.537 106.479 58.537H117.723C118.306 58.537 118.598 58.7449 118.598 59.1607C118.598 59.618 118.306 59.8883 117.723 59.9715L115.974 60.2209C115.099 60.3456 114.475 60.5743 114.1 60.9069C113.767 61.2396 113.496 61.8424 113.288 62.7156L106.603 91.5287C105.854 94.6886 106.062 97.1417 107.228 98.8879C108.436 100.634 110.289 101.507 112.788 101.507C115.495 101.507 117.682 100.634 119.347 98.8879C121.013 97.1417 122.2 94.6886 122.908 91.5287L129.28 63.9629C129.822 61.6345 129.405 60.3872 128.031 60.2209L126.656 60.0338C126.073 59.9507 125.782 59.7012 125.782 59.2854C125.782 59.036 125.907 58.8489 126.157 58.7241C126.407 58.5994 126.677 58.537 126.969 58.537H135.965C136.506 58.537 136.777 58.7449 136.777 59.1607C136.777 59.5765 136.444 59.8467 135.777 59.9715L134.278 60.2209C132.82 60.4704 131.821 61.6969 131.279 63.9005L124.907 91.4664C124.033 95.2499 122.45 98.285 120.16 100.572C117.869 102.859 114.975 104.002 111.476 104.002Z" fill="white"></path>
  <path d="M129.599 103.441C129.016 103.441 128.725 103.233 128.725 102.817C128.725 102.36 129.141 102.069 129.974 101.944L131.224 101.757C132.14 101.632 132.765 101.424 133.098 101.133C133.473 100.8 133.743 100.198 133.91 99.3245L142.406 62.6532C142.614 61.7801 142.614 61.198 142.406 60.9069C142.198 60.6159 141.677 60.3872 140.844 60.2209L139.595 59.9715C139.053 59.8467 138.783 59.618 138.783 59.2854C138.783 58.7865 139.157 58.537 139.907 58.537H152.464C156.045 58.537 158.877 59.8675 160.96 62.5285C163.084 65.1478 164.146 69.0561 164.146 74.2533C164.146 78.0784 163.542 81.758 162.334 85.2921C161.126 88.7846 159.502 91.9029 157.461 94.647C155.421 97.3496 153.088 99.4908 150.465 101.071C147.882 102.651 145.175 103.441 142.343 103.441H129.599ZM142.656 101.819C145.03 101.819 147.258 100.946 149.34 99.1998C151.422 97.4535 153.255 95.0836 154.837 92.09C156.42 89.0549 157.649 85.6455 158.523 81.862C159.439 78.0784 159.898 74.1701 159.898 70.1371C159.898 66.8109 159.21 64.3163 157.836 62.6532C156.462 60.9901 154.546 60.1586 152.089 60.1586C148.965 60.1586 147.049 61.6761 146.341 64.7113L138.845 97.2664C138.47 98.9295 138.616 100.114 139.282 100.821C139.99 101.487 141.115 101.819 142.656 101.819Z" fill="white"></path>
  <path d="M162.482 103.441C161.899 103.441 161.607 103.233 161.607 102.817C161.607 102.36 162.024 102.069 162.857 101.944L164.106 101.757C165.022 101.632 165.647 101.424 165.98 101.133C166.355 100.8 166.626 100.198 166.792 99.3245L175.288 62.6532C175.496 61.7801 175.496 61.198 175.288 60.9069C175.08 60.6159 174.559 60.3872 173.726 60.2209L172.477 59.9715C171.936 59.8467 171.665 59.618 171.665 59.2854C171.665 58.7865 172.04 58.537 172.789 58.537H183.909C184.492 58.537 184.784 58.7449 184.784 59.1607C184.784 59.618 184.367 59.9091 183.534 60.0338L182.285 60.2209C181.369 60.3456 180.744 60.5743 180.411 60.9069C180.078 61.198 179.807 61.7801 179.599 62.6532L171.103 99.3245C170.936 100.198 170.936 100.78 171.103 101.071C171.311 101.362 171.832 101.59 172.664 101.757L173.914 102.006C174.455 102.131 174.726 102.36 174.726 102.692C174.726 103.191 174.351 103.441 173.602 103.441H162.482Z" fill="white"></path>
  <path d="M193.405 104.002C190.156 104.002 187.574 102.671 185.658 100.011C183.784 97.3496 182.847 93.4413 182.847 88.2857C182.847 85.209 183.201 82.1946 183.909 79.2426C184.617 76.2906 185.596 73.5465 186.845 71.0103C188.095 68.4325 189.531 66.1665 191.156 64.2123C192.822 62.2166 194.592 60.6783 196.466 59.5973C198.381 58.4747 200.339 57.9134 202.338 57.9134C205.586 57.9134 208.148 59.2438 210.022 61.9048C211.938 64.5242 212.895 68.4325 212.895 73.6296C212.895 76.7064 212.541 79.7207 211.833 82.6727C211.125 85.6247 210.147 88.3896 208.897 90.9674C207.648 93.5036 206.19 95.7696 204.524 97.7653C202.9 99.7195 201.13 101.258 199.214 102.38C197.34 103.461 195.404 104.002 193.405 104.002ZM193.28 102.38C194.821 102.38 196.32 101.778 197.778 100.572C199.277 99.3245 200.672 97.6406 201.963 95.5201C203.296 93.3581 204.462 90.8843 205.461 88.0986C206.461 85.2713 207.231 82.2777 207.773 79.1179C208.356 75.958 208.647 72.7565 208.647 69.5135C208.647 62.8611 206.586 59.5349 202.463 59.5349C200.922 59.5349 199.402 60.1586 197.903 61.4059C196.445 62.6116 195.05 64.2955 193.717 66.4575C192.426 68.578 191.281 71.0518 190.281 73.8791C189.282 76.6648 188.49 79.6376 187.907 82.7975C187.366 85.9573 187.095 89.1588 187.095 92.4018C187.095 99.0542 189.157 102.38 193.28 102.38Z" fill="white"></path>
  <path d="M223.286 104.002C222.119 104.002 220.87 103.877 219.537 103.628C218.246 103.378 217.018 103.046 215.852 102.63C214.727 102.173 213.832 101.653 213.165 101.071C212.957 100.863 212.811 100.655 212.728 100.447C212.686 100.239 212.707 99.9274 212.79 99.5116L214.54 89.7201C214.665 88.9717 214.998 88.5975 215.539 88.5975C216.039 88.5975 216.289 89.0133 216.289 89.8448L216.351 92.2771C216.435 95.7696 217.038 98.285 218.163 99.8234C219.287 101.362 221.12 102.131 223.66 102.131C225.993 102.131 227.929 101.299 229.47 99.6363C231.011 97.9316 231.781 95.6657 231.781 92.8384C231.781 91.009 231.282 89.0964 230.282 87.1007C229.283 85.105 227.888 83.1093 226.097 81.1136C223.973 78.7437 222.39 76.5816 221.349 74.6275C220.349 72.6734 219.85 70.6153 219.85 68.4532C219.85 66.7486 220.266 65.1063 221.099 63.5263C221.932 61.9048 223.181 60.5743 224.847 59.5349C226.555 58.4539 228.72 57.9134 231.344 57.9134C234.967 57.9134 237.737 58.7241 239.653 60.3456C240.236 60.803 240.444 61.489 240.277 62.4037L238.528 71.5092C238.403 72.1329 238.112 72.4447 237.654 72.4447C237.196 72.4447 236.925 72.0913 236.842 71.3845L236.779 70.0748C236.613 66.707 236.134 64.15 235.342 62.4037C234.593 60.6159 233.073 59.722 230.782 59.722C229.116 59.722 227.783 60.0962 226.784 60.8446C225.784 61.593 225.056 62.5285 224.597 63.6511C224.139 64.7321 223.91 65.8131 223.91 66.8941C223.91 68.0998 224.077 69.264 224.41 70.3866C224.743 71.4676 225.305 72.6318 226.097 73.8791C226.93 75.0848 228.054 76.5608 229.47 78.3071C231.469 80.677 233.031 82.943 234.155 85.105C235.28 87.267 235.842 89.3667 235.842 91.404C235.842 93.8571 235.28 96.0399 234.155 97.9524C233.073 99.8234 231.594 101.299 229.72 102.38C227.846 103.461 225.701 104.002 223.286 104.002Z" fill="white"></path>
</svg>
