<?xml version="1.0" encoding="UTF-8"?>
<svg xmlns="http://www.w3.org/2000/svg" width="241" height="64" viewBox="0 0 241 64" fill="none">
  <rect x="2.66699" y="2.03857" width="236" height="59" stroke="white" stroke-width="4"></rect>
  <path d="M220.143 48.0386L213.286 36.2764L206.428 48.0386H200.904L210.523 31.5386L200.904 15.0386H206.428L213.286 26.8007L220.143 15.0386H225.667L216.048 31.5386L225.667 48.0386H220.143Z" fill="white"></path>
  <path d="M182.496 43.3243C185.782 43.3243 188.584 42.1771 190.901 39.8829C193.235 37.5729 194.402 34.7914 194.402 31.5386C194.402 28.2857 193.235 25.5121 190.901 23.2179C188.584 20.9079 185.782 19.7529 182.496 19.7529C179.211 19.7529 176.401 20.9079 174.067 23.2179C171.75 25.5121 170.591 28.2857 170.591 31.5386C170.591 34.7914 171.75 37.5729 174.067 39.8829C176.401 42.1771 179.211 43.3243 182.496 43.3243ZM182.496 48.0386C177.893 48.0386 173.964 46.4279 170.71 43.2064C167.456 39.985 165.829 36.0957 165.829 31.5386C165.829 26.9814 167.456 23.0921 170.71 19.8707C173.964 16.6493 177.893 15.0386 182.496 15.0386C187.1 15.0386 191.028 16.6493 194.283 19.8707C197.537 23.0921 199.164 26.9814 199.164 31.5386C199.164 36.0957 197.537 39.985 194.283 43.2064C191.028 46.4279 187.1 48.0386 182.496 48.0386Z" fill="white"></path>
  <path d="M145.421 29.1814H150.183C151.501 29.1814 152.62 28.7257 153.541 27.8143C154.477 26.8871 154.945 25.7714 154.945 24.4671C154.945 23.1629 154.477 22.055 153.541 21.1436C152.62 20.2164 151.501 19.7529 150.183 19.7529H145.421V29.1814ZM140.659 15.0386H150.183C152.818 15.0386 155.064 15.9579 156.922 17.7964C158.779 19.635 159.708 21.8586 159.708 24.4671C159.708 27.0757 158.779 29.2993 156.922 31.1379C156.779 31.2793 156.636 31.4129 156.493 31.5386C156.636 31.6643 156.779 31.7979 156.922 31.9393C158.779 33.7779 159.708 36.0014 159.708 38.61C159.708 41.2186 158.779 43.4421 156.922 45.2807C155.064 47.1193 152.818 48.0386 150.183 48.0386H140.659V15.0386ZM145.421 33.8957V43.3243H150.183C151.501 43.3243 152.62 42.8686 153.541 41.9571C154.477 41.03 154.945 39.9143 154.945 38.61C154.945 37.3057 154.477 36.1979 153.541 35.2864C152.62 34.3593 151.501 33.8957 150.183 33.8957H145.421Z" fill="white"></path>
  <path d="M121.775 43.3243H133.68V48.0386H117.013V15.0386H133.68V19.7529H121.775V29.1814H133.68V33.8957H121.775V43.3243Z" fill="white"></path>
  <path d="M95.7482 19.7529V29.1814H100.51C101.828 29.1814 102.947 28.7257 103.868 27.8143C104.804 26.8871 105.272 25.7714 105.272 24.4671C105.272 23.1629 104.804 22.055 103.868 21.1436C102.947 20.2164 101.828 19.7529 100.51 19.7529H95.7482ZM95.7482 30.36V48.0386H90.9861V15.0386H100.51C103.145 15.0386 105.391 15.9579 107.249 17.7964C109.106 19.635 110.034 21.8586 110.034 24.4671C110.034 27.0757 109.106 29.2993 107.249 31.1379C106.042 32.3321 104.669 33.1414 103.129 33.5657L111.582 48.0386H106.058L95.7482 30.36Z" fill="white"></path>
  <path d="M69.6259 40.9671L67.721 48.0386H62.7922L71.7212 15.0386H77.2452L86.1742 48.0386H81.2454L79.3406 40.9671H69.6259ZM78.0548 36.2529L74.4832 23.0293L70.9116 36.2529H78.0548Z" fill="white"></path>
  <path d="M41.313 15.0386H46.0751V43.3243H57.9804V48.0386H41.313V15.0386Z" fill="white"></path>
  <path d="M34.3344 15.0386V19.7529H22.4291V29.1814H34.3344V33.8957H22.4291V48.0386H17.667V15.0386H34.3344Z" fill="white"></path>
</svg>
