<?xml version="1.0" encoding="UTF-8"?>
<svg xmlns="http://www.w3.org/2000/svg" width="241" height="121" viewBox="0 0 241 121" fill="none">
  <g clip-path="url(#clip0_64628_1277)">
    <path d="M25.0176 93.9425C19.8807 90.5443 16.386 85.7868 14.5333 79.67C11.165 84.4275 8.72285 89.7797 7.20706 95.7266C5.77548 101.758 5.05969 106.558 5.05969 110.127C5.05969 113.695 5.35443 115.606 5.9439 115.861C8.04916 115.861 14.407 108.555 25.0176 93.9425ZM17.8176 73.9354L17.6912 75.3372C19.1228 81.7938 22.4491 86.8062 27.6702 90.3744C30.0281 87.1461 33.7333 82.0062 38.786 74.9549C43.8386 67.8186 48.007 61.9992 51.2912 57.4965C54.5755 52.9089 58.6176 47.3868 63.4176 40.9301C68.2176 34.3885 72.3439 29.0363 75.7965 24.8735C79.3334 20.6257 82.9544 16.4629 86.6597 12.385C93.986 4.31421 99.5018 0.278809 103.207 0.278809C104.807 0.278809 105.607 1.59563 105.607 4.22926C105.607 8.562 103.754 15.2735 100.049 24.3638C96.4281 33.3691 92.1755 41.6098 87.2913 49.0859C82.4912 56.477 78.7018 60.1726 75.9228 60.1726C74.2386 60.1726 73.3965 58.4735 73.3965 55.0753C73.3965 51.5921 74.7018 46.7921 77.3123 40.6753C79.9228 34.4735 82.0281 31.3726 83.6281 31.3726C84.2176 31.3726 84.5123 31.7549 84.5123 32.5195C84.5123 32.7744 84.4702 32.9868 84.386 33.1567C82.3649 35.7054 80.5544 39.231 78.9544 43.7337C77.3544 48.1514 76.5544 51.5496 76.5544 53.9284C76.5544 56.2222 77.0597 57.3691 78.0702 57.3691C80.007 57.3691 83.0386 53.6735 87.1649 46.2823C91.2913 38.8912 94.9965 30.9054 98.2807 22.3248C101.649 13.7443 103.333 7.7974 103.333 4.48411C103.333 3.03988 102.954 2.31775 102.197 2.31775C100.512 2.31775 95.9649 6.90536 88.5544 16.0806C81.2281 25.2558 71.2491 38.254 58.6176 55.0753C46.0702 71.8965 36.6807 84.2151 30.4491 92.031C35.4176 94.6646 40.6807 95.9815 46.2386 95.9815C51.7965 95.9815 57.6491 95.4717 63.7965 94.4523C69.9439 93.4328 74.6176 92.4133 77.8176 91.3938L82.7439 89.7372H83.1228C83.6281 89.7372 83.8807 89.9071 83.8807 90.2469C83.8807 90.8416 83.586 91.2239 82.9965 91.3938C66.9965 96.4912 53.6912 99.0399 43.0807 99.0399C37.2702 99.0399 32.1333 97.8505 27.6702 95.4717C14.3649 111.953 6.19653 120.194 3.16494 120.194C1.73336 120.194 1.01758 117.603 1.01758 112.42C1.01758 107.238 2.28073 101.249 4.80706 94.4523C7.41758 87.7408 9.98601 82.5584 12.5123 78.9054C15.1228 75.1673 16.7649 73.2983 17.4386 73.2983C17.6912 73.2983 17.8176 73.5107 17.8176 73.9354ZM113.189 65.0151V64.8876C111.505 65.7372 109.652 67.7762 107.631 71.0045C105.61 74.1478 104.431 76.8664 104.094 79.1602C110.157 72.8735 113.189 68.1584 113.189 65.0151ZM86.2837 91.6487C89.4837 91.6487 94.6626 88.2505 101.821 81.454V80.8169C101.821 78.1832 103.084 74.9549 105.61 71.1319C108.221 67.2239 110.579 64.7177 112.684 63.6133C112.431 63.3584 112.094 63.231 111.673 63.231C108.557 63.231 103.378 66.8416 96.1363 74.0629C88.9784 81.2841 85.3995 86.8912 85.3995 90.8841C85.3995 91.3938 85.6942 91.6487 86.2837 91.6487ZM82.3679 89.8646C82.3679 83.493 85.9889 77.1638 93.231 70.877C100.557 64.5053 106.621 61.3195 111.421 61.3195C113.779 61.3195 114.957 62.3815 114.957 64.5053C114.957 70.5372 111.757 76.5691 105.357 82.6009C105.863 82.7708 106.368 82.8558 106.873 82.8558C109.231 82.8558 112.642 81.3691 117.105 78.3956L117.736 79.67C112.347 83.3231 108.263 85.1496 105.484 85.1496C104.389 85.1496 103.589 84.9372 103.084 84.5124C99.7995 87.231 96.3468 89.4399 92.7258 91.139C89.1047 92.8381 86.4521 93.6877 84.7679 93.6877C83.1679 93.6877 82.3679 92.4133 82.3679 89.8646ZM142.548 65.0151V64.8876C140.864 65.7372 139.011 67.7762 136.99 71.0045C134.969 74.1478 133.79 76.8664 133.453 79.1602C139.516 72.8735 142.548 68.1584 142.548 65.0151ZM115.643 91.6487C118.843 91.6487 124.022 88.2505 131.18 81.454V80.8169C131.18 78.1832 132.443 74.9549 134.969 71.1319C137.58 67.2239 139.937 64.7177 142.043 63.6133C141.79 63.3584 141.453 63.231 141.032 63.231C137.916 63.231 132.737 66.8416 125.495 74.0629C118.337 81.2841 114.759 86.8912 114.759 90.8841C114.759 91.3938 115.053 91.6487 115.643 91.6487ZM111.727 89.8646C111.727 83.493 115.348 77.1638 122.59 70.877C129.916 64.5053 135.98 61.3195 140.78 61.3195C143.137 61.3195 144.316 62.3815 144.316 64.5053C144.316 70.5372 141.116 76.5691 134.716 82.6009C135.222 82.7708 135.727 82.8558 136.232 82.8558C138.59 82.8558 142.001 81.3691 146.464 78.3956L147.095 79.67C141.706 83.3231 137.622 85.1496 134.843 85.1496C133.748 85.1496 132.948 84.9372 132.443 84.5124C129.159 87.231 125.706 89.4399 122.085 91.139C118.464 92.8381 115.811 93.6877 114.127 93.6877C112.527 93.6877 111.727 92.4133 111.727 89.8646ZM144.871 81.0717L144.492 79.67L149.797 75.9744C153.587 73.4257 156.197 71.5142 157.629 70.2399C159.061 68.9655 160.071 68.116 160.661 67.6912C161.334 67.1815 162.05 66.4593 162.808 65.5248C163.65 64.5903 164.155 64.0381 164.324 63.8682C164.324 63.8682 164.829 63.1885 165.84 61.8292C166.682 60.8098 167.145 60.2151 167.229 60.0452C168.576 60.385 169.25 61.4045 169.25 63.1036C166.892 66.6717 163.44 71.0894 158.892 76.3567C154.345 81.6239 152.071 84.385 152.071 84.6399C152.071 84.8098 152.113 84.8947 152.197 84.8947C152.366 84.8947 152.997 84.4699 154.092 83.6204C155.271 82.6859 158.387 80.4346 163.44 76.8664C173.713 69.7301 180.661 64.9301 184.282 62.4664C185.713 61.277 186.682 60.6823 187.187 60.6823C187.776 60.6823 188.24 60.8947 188.576 61.3195C188.997 61.6593 189.208 62.1691 189.208 62.8487C189.208 63.5284 188.534 64.9301 187.187 67.054C185.84 69.1779 184.408 71.2169 182.892 73.1708C178.934 78.2682 176.492 81.2841 175.566 82.2186C175.145 82.8983 174.934 83.3231 174.934 83.493C174.934 83.5779 174.976 83.6204 175.061 83.6204C175.65 83.6204 184.997 76.9514 203.103 63.6133C206.05 61.4894 208.029 60.4275 209.04 60.4275C209.797 60.4275 210.176 61.277 210.176 62.9762C210.176 64.5903 208.913 67.054 206.387 70.3673C203.861 73.6806 201.082 76.739 198.05 79.5425C189.966 87.0186 185.924 91.139 185.924 91.9036C185.924 91.9885 186.092 92.031 186.429 92.031C187.44 92.031 193.124 88.6753 203.482 81.9638L208.661 78.5231L208.787 80.1797C195.229 89.27 186.976 93.8151 184.029 93.8151C183.524 93.8151 183.271 93.5602 183.271 93.0505C183.271 89.9071 185.208 86.2115 189.082 81.9638C193.04 77.631 196.955 73.7655 200.829 70.3673C204.703 66.8841 206.64 64.5903 206.64 63.4859C206.64 63.316 206.555 63.231 206.387 63.231C206.303 63.231 206.05 63.3584 205.629 63.6133C205.208 63.8682 199.903 67.6062 189.713 74.8275C179.608 82.0487 173.713 86.2965 172.029 87.5708C170.345 88.7602 168.282 90.5868 165.84 93.0505C164.997 93.7301 163.692 94.07 161.924 94.07C160.155 94.07 159.271 93.9 159.271 93.5602C159.271 93.1354 159.608 92.5832 160.282 91.9036C165.334 86.8062 170.724 81.0292 176.45 74.5726C182.261 68.116 185.292 64.6328 185.545 64.1231C185.545 63.8682 185.419 63.7407 185.166 63.7407C184.324 63.7407 179.145 67.139 169.629 73.9354C160.113 80.6469 154.597 84.5549 153.082 85.6593C149.124 88.6328 147.019 90.2045 146.766 90.3744C146.597 90.4593 146.176 90.8841 145.503 91.6487C143.987 93.2629 142.597 94.07 141.334 94.07C140.071 93.7301 139.397 93.4753 139.313 93.3054C141.25 91.0965 146.05 85.1921 153.713 75.5921L144.871 81.0717ZM236.092 60.9372C236.092 60.6823 235.924 60.5549 235.587 60.5549C233.313 60.5549 229.776 62.5514 224.976 66.5443C220.176 70.5372 216.008 74.9124 212.471 79.67C216.682 78.3107 221.65 75.2523 227.376 70.4947C233.187 65.7372 236.092 62.5514 236.092 60.9372ZM206.913 91.0116C206.913 92.116 207.334 92.6682 208.176 92.6682C209.187 92.6682 211.461 91.9885 214.997 90.6292C218.534 89.185 221.44 87.7832 223.713 86.4239L236.092 78.5231L236.219 80.1797C227.376 86.1266 220.766 89.9071 216.387 91.5213C212.092 93.1354 209.229 93.9425 207.797 93.9425C205.44 93.9425 204.261 92.4558 204.261 89.4823C204.261 85.4894 205.692 81.4965 208.555 77.5036C211.419 73.5107 214.745 70.2399 218.534 67.6912C222.408 65.1425 226.113 63.0611 229.65 61.4469C233.271 59.8328 236.008 59.0257 237.861 59.0257C239.713 59.0257 240.64 59.6629 240.64 60.9372C240.64 64.0806 236.934 67.9036 229.524 72.4062C222.197 76.9089 216.092 79.8823 211.208 81.3266C208.345 85.4894 206.913 88.7177 206.913 91.0116Z" fill="white"></path>
  </g>
  <defs>
    <clipPath id="clip0_64628_1277">
      <rect width="240" height="120" fill="white" transform="translate(0.666992 0.236328)"></rect>
    </clipPath>
  </defs>
</svg>
