<?xml version="1.0" encoding="UTF-8"?>
<svg xmlns="http://www.w3.org/2000/svg" width="240" height="61" viewBox="0 0 240 61" fill="none">
  <g clip-path="url(#clip0_64628_1271)">
    <path d="M25.2749 59.6938L21.6444 52.1481C21.2646 52.1956 20.8375 52.2193 20.363 52.2193C19.8884 52.2668 19.4138 52.2905 18.9393 52.2905C16.4714 52.2905 14.1223 51.9108 11.8918 51.1515C9.66127 50.3447 7.69179 49.1108 5.98331 47.4498C4.93924 46.3108 3.99009 44.9819 3.13585 43.4633C2.28162 41.8972 1.6172 39.7853 1.14263 37.1277C0.715512 34.4227 0.501953 30.887 0.501953 26.521C0.501953 22.1549 0.715512 18.643 1.14263 15.9854C1.6172 13.2803 2.28162 11.1447 3.13585 9.57858C3.99009 8.01248 4.93924 6.68367 5.98331 5.59214C7.69179 3.93112 9.66127 2.72095 11.8918 1.96164C14.1223 1.15485 16.4714 0.751465 18.9393 0.751465C21.4545 0.751465 23.8273 1.15485 26.0579 1.96164C28.2884 2.72095 30.2341 3.93112 31.8952 5.59214C33.0342 6.68367 34.007 8.01248 34.8138 9.57858C35.6206 11.1447 36.2613 13.2803 36.7359 15.9854C37.2104 18.643 37.4477 22.1549 37.4477 26.521C37.4477 30.887 37.2104 34.4227 36.7359 37.1277C36.2613 39.7853 35.6206 41.8972 34.8138 43.4633C34.007 44.9819 33.0342 46.3108 31.8952 47.4498C31.563 47.782 31.1833 48.1141 30.7562 48.4464C30.3765 48.7786 29.9732 49.0634 29.546 49.3006L33.0342 56.1345L25.2749 59.6938ZM18.2274 43.8904C18.4647 43.8904 18.6782 43.8904 18.8681 43.8904C19.1053 43.8904 19.3189 43.8668 19.5088 43.8193C19.9833 43.7244 20.2206 43.5108 20.2206 43.1786C20.268 42.799 20.1019 42.4904 19.7223 42.2532L16.3054 40.1176L14.0986 35.0633L21.502 31.6464L25.6308 40.3311C26.2003 39.7616 26.6274 39.0498 26.9121 38.1955C27.2443 37.3413 27.4578 36.4396 27.5528 35.4904C27.6477 33.9718 27.7189 32.4769 27.7664 31.0057C27.8613 29.5345 27.9088 28.0396 27.9088 26.521C27.9088 25.0023 27.8613 23.5074 27.7664 22.0362C27.7189 20.5176 27.6477 19.0227 27.5528 17.5515C27.363 15.0362 26.5087 13.0667 24.9901 11.643C23.4714 10.2193 21.4545 9.5074 18.9393 9.5074C16.4239 9.5074 14.407 10.2193 12.8884 11.643C11.4172 13.0667 10.5867 15.0362 10.3969 17.5515C10.3019 19.0227 10.207 20.5176 10.1121 22.0362C10.0647 23.5074 10.0409 25.0023 10.0409 26.521C10.0409 28.0871 10.0647 29.6532 10.1121 31.2193C10.207 32.7379 10.3019 34.2328 10.3969 35.704C10.4918 37.1752 10.8714 38.5515 11.5359 39.8328C12.2477 41.0667 13.1732 42.0633 14.3121 42.8227C15.4985 43.5345 16.8037 43.8904 18.2274 43.8904ZM62.4475 52.1481C59.1729 52.1481 56.2543 51.4837 53.6916 50.1549C51.1764 48.826 49.2068 46.9752 47.7831 44.6023C46.3594 42.182 45.6475 39.4294 45.6475 36.3447V1.6057H55.6848V36.4871C55.6848 38.5278 56.3018 40.1651 57.5356 41.3989C58.817 42.6328 60.4543 43.2498 62.4475 43.2498C64.4407 43.2498 66.078 42.6328 67.3594 41.3989C68.6407 40.1651 69.2814 38.5278 69.2814 36.4871V1.6057H79.3187L79.1763 36.3447C79.1763 39.4294 78.4645 42.182 77.0407 44.6023C75.617 46.9752 73.6475 48.826 71.1323 50.1549C68.6644 51.4837 65.7696 52.1481 62.4475 52.1481ZM105.975 52.2905C103.508 52.2905 101.159 51.9108 98.9283 51.1515C96.6979 50.3447 94.7283 49.1108 93.0199 47.4498C91.9758 46.3108 91.0266 44.9819 90.1724 43.4633C89.3182 41.8972 88.6538 39.7853 88.1792 37.1277C87.7521 34.4227 87.5385 30.887 87.5385 26.521C87.5385 22.1549 87.7521 18.643 88.1792 15.9854C88.6538 13.2803 89.3182 11.1447 90.1724 9.57858C91.0266 8.01248 91.9758 6.68367 93.0199 5.59214C94.7283 3.93112 96.6979 2.72095 98.9283 1.96164C101.159 1.15485 103.508 0.751465 105.975 0.751465C108.491 0.751465 110.864 1.15485 113.094 1.96164C115.325 2.72095 117.271 3.93112 118.931 5.59214C120.07 6.68367 121.044 8.01248 121.85 9.57858C122.657 11.1447 123.298 13.2803 123.772 15.9854C124.247 18.643 124.484 22.1549 124.484 26.521C124.484 30.887 124.247 34.4227 123.772 37.1277C123.298 39.7853 122.657 41.8972 121.85 43.4633C121.044 44.9819 120.07 46.3108 118.931 47.4498C117.271 49.1108 115.325 50.3447 113.094 51.1515C110.864 51.9108 108.491 52.2905 105.975 52.2905ZM105.975 43.3921C108.349 43.3921 110.247 42.704 111.67 41.3277C113.094 39.904 113.877 37.9583 114.019 35.4904C114.115 33.9718 114.186 32.4769 114.233 31.0057C114.329 29.5345 114.375 28.0396 114.375 26.521C114.375 25.0023 114.329 23.5074 114.233 22.0362C114.186 20.5176 114.115 19.0227 114.019 17.5515C113.877 15.0836 113.094 13.1616 111.67 11.7854C110.247 10.3616 108.349 9.64977 105.975 9.64977C103.603 9.64977 101.704 10.3616 100.281 11.7854C98.9046 13.1616 98.1216 15.0836 97.9317 17.5515C97.8368 19.0227 97.7419 20.5176 97.647 22.0362C97.5995 23.5074 97.5758 25.0023 97.5758 26.521C97.5758 28.0396 97.5995 29.5345 97.647 31.0057C97.7419 32.4769 97.8368 33.9718 97.9317 35.4904C98.1216 37.9583 98.9046 39.904 100.281 41.3277C101.704 42.704 103.603 43.3921 105.975 43.3921ZM133.325 51.4362V1.6057H151.335C156.508 1.6057 160.518 2.91078 163.366 5.52096C166.26 8.08367 167.708 11.6905 167.708 16.3413C167.708 19.5684 166.901 22.3684 165.288 24.7413C163.674 27.0668 161.396 28.7752 158.454 29.8667C157.742 30.104 157.623 30.5786 158.098 31.2904L160.447 34.8498L166.498 51.4362H156.461L148.915 30.9345H143.291V51.4362H133.325ZM143.22 22.6769H151.62C153.85 22.6769 155.582 22.1311 156.817 21.0396C158.05 19.9481 158.668 18.382 158.668 16.3413C158.668 14.2532 158.05 12.6396 156.817 11.5006C155.582 10.3616 153.85 9.79214 151.62 9.79214H143.22V22.6769ZM173.604 51.4362V43.1074H180.651V9.93452H173.604V1.6057H197.665V9.93452H190.617V43.1074H197.665V51.4362H173.604ZM202.681 51.4362L213.644 26.2362L202.681 1.6057H213.43L219.695 17.0532L220.549 21.8938C220.645 22.2735 220.81 22.4633 221.047 22.4633C221.332 22.4633 221.546 22.2735 221.688 21.8938L222.542 17.0532L228.878 1.6057H239.556L228.522 26.2362L239.556 51.4362H228.878L222.542 35.4904L221.688 30.5786C221.546 30.199 221.332 30.0091 221.047 30.0091C220.81 30.0091 220.645 30.199 220.549 30.5786L219.695 35.4904L213.43 51.4362H202.681Z" fill="white"></path>
  </g>
  <defs>
    <clipPath id="clip0_64628_1271">
      <rect width="240" height="60" fill="white" transform="translate(0 0.588867)"></rect>
    </clipPath>
  </defs>
</svg>
