<?xml version="1.0" encoding="UTF-8"?>
<svg xmlns="http://www.w3.org/2000/svg" width="241" height="78" viewBox="0 0 241 78" fill="none">
  <path d="M0.333008 45.4759V44.2892C2.43597 44.2126 4.00036 44.034 5.0262 43.7533C6.05203 43.447 6.73165 42.9111 7.06504 42.1455C7.39844 41.38 7.56514 40.2826 7.56514 38.8535V7.31135C7.56514 5.83122 7.39844 4.72112 7.06504 3.98105C6.73165 3.24098 6.05203 2.73059 5.0262 2.44988C4.00036 2.14364 2.43597 1.95225 0.333008 1.87569V0.727307C2.71807 0.778346 5.79557 0.829386 9.56551 0.880425C13.3611 0.905944 17.7722 0.918704 22.7988 0.918704C24.7479 0.918704 27.0945 0.918704 29.8386 0.918704C32.5827 0.893185 35.1088 0.829386 37.4169 0.727307C37.2887 3.53446 37.6349 7.38791 38.4556 12.2877H37.2246C36.2757 9.71019 35.3139 7.68139 34.3394 6.20125C33.3649 4.6956 32.198 3.63654 30.8387 3.02407C29.5052 2.38608 27.7741 2.06708 25.6455 2.06708H13.4893V22.3551H19.7597C22.7347 22.3551 24.8761 21.6661 26.184 20.288C27.492 18.91 28.3639 16.6515 28.7999 13.5126H29.8386C29.6847 16.039 29.6077 17.953 29.6077 19.2545C29.6334 20.556 29.6462 21.7937 29.6462 22.9676C29.6462 23.478 29.659 24.0649 29.6847 24.7285C29.7103 25.3664 29.7488 26.2851 29.8001 27.4846C29.877 28.6585 29.9668 30.3045 30.0694 32.4226H28.9922C28.7358 30.1003 28.287 28.3012 27.6458 27.0252C27.0303 25.7492 26.0943 24.856 24.8376 24.3457C23.6066 23.8097 21.914 23.5418 19.7597 23.5418H13.4893V38.8535C13.4893 40.3847 13.6432 41.5203 13.951 42.2604C14.2587 43.0005 14.8742 43.4981 15.7975 43.7533C16.7464 43.983 18.1569 44.0978 20.029 44.0978H22.7988C26.3123 44.0978 29.1333 43.715 31.2619 42.9494C33.4162 42.1838 35.1729 40.8313 36.5321 38.8918C37.8914 36.9268 39.148 34.1707 40.3021 30.6235H41.4946C41.0586 33.8645 40.7509 36.6971 40.5713 39.1215C40.4175 41.5203 40.3662 43.6384 40.4175 45.4759C38.0581 45.4248 35.4422 45.3865 32.5698 45.361C29.7232 45.31 26.4661 45.2845 22.7988 45.2845C17.7722 45.2845 13.3739 45.31 9.60398 45.361C5.83404 45.3865 2.74372 45.4248 0.333008 45.4759Z" fill="white"></path>
  <path d="M46.0707 45.4759V44.2892C48.4814 44.1616 50.2125 43.8681 51.264 43.4088C52.3155 42.9494 52.9566 42.3369 53.1874 41.5714C53.4439 40.8058 53.5721 39.8998 53.5721 38.8535V7.31135C53.5721 5.83122 53.3926 4.74664 53.0336 4.05761C52.7002 3.34306 51.9949 2.84543 50.9178 2.56472C49.8663 2.284 48.2506 2.05432 46.0707 1.87569V0.727307C46.8914 0.752827 48.1737 0.791106 49.9176 0.842145C51.6615 0.893184 53.8542 0.918704 56.4957 0.918704C59.4707 0.918704 61.9583 0.905944 63.9587 0.880425C65.9847 0.829386 67.5235 0.778346 68.5749 0.727307V1.87569C65.9847 2.05432 64.0356 2.32228 62.7277 2.67955C61.4454 3.01131 60.5863 3.53446 60.1503 4.24901C59.7143 4.96355 59.4963 5.98434 59.4963 7.31135V38.8535C59.4963 40.0019 59.6117 40.9716 59.8425 41.7628C60.099 42.5283 60.7017 43.1153 61.6506 43.5236C62.5995 43.9064 64.151 44.0978 66.3053 44.0978H68.8442C71.4088 44.0978 73.64 43.983 75.5378 43.7533C77.4356 43.4981 79.0769 42.9494 80.4618 42.1073C81.8723 41.2396 83.129 39.8998 84.2317 38.0879C85.3345 36.2761 86.386 33.7879 87.3862 30.6235H88.5787C88.1684 33.5582 87.8606 36.2378 87.6555 38.6621C87.4759 41.0865 87.4246 43.3577 87.5016 45.4759C85.1678 45.4248 82.5263 45.3865 79.577 45.361C76.6534 45.31 73.204 45.2845 69.2289 45.2845C64.1254 45.2845 59.6245 45.31 55.7264 45.361C51.8538 45.3865 48.6353 45.4248 46.0707 45.4759Z" fill="white"></path>
  <path d="M87.6538 45.4759V44.2892C89.6285 44.085 91.257 43.6257 92.5393 42.9111C93.8216 42.1966 94.8731 40.9334 95.6938 39.1215L113.389 0H115.313L133.932 39.8488C134.599 41.2524 135.522 42.3114 136.701 43.026C137.881 43.7405 139.497 44.1616 141.549 44.2892V45.4759C140.164 45.4248 138.651 45.3865 137.009 45.361C135.394 45.31 133.765 45.2845 132.124 45.2845C129.636 45.2845 127.405 45.31 125.43 45.361C123.481 45.3865 121.942 45.4248 120.814 45.4759V44.2892C124.404 44.2382 126.61 43.8171 127.43 43.026C128.251 42.2349 128.174 40.793 127.2 38.7004L122.545 28.7095H101.733L100.656 31.0063C98.5789 35.4211 97.9891 38.7642 98.8867 41.0354C99.8099 43.2812 101.99 44.3657 105.426 44.2892V45.4759C104.247 45.4503 102.734 45.4121 100.887 45.361C99.0662 45.31 97.194 45.2845 95.2706 45.2845C94.1935 45.2845 93.1548 45.31 92.1546 45.361C91.1801 45.3865 89.6798 45.4248 87.6538 45.4759ZM102.31 27.5228H122.045L112.389 5.12943L102.31 27.5228Z" fill="white"></path>
  <path d="M141.932 45.4759V44.2892C144.06 44.1871 145.65 43.9957 146.702 43.715C147.753 43.4088 148.446 42.8856 148.779 42.1455C149.138 41.38 149.318 40.2826 149.318 38.8535V7.31135C149.318 5.85674 149.138 4.7594 148.779 4.01933C148.446 3.27926 147.753 2.76887 146.702 2.48816C145.65 2.18192 144.06 1.97777 141.932 1.87569V0.727307C142.906 0.752827 144.214 0.778346 145.855 0.803866C147.497 0.803866 149.471 0.803866 151.78 0.803866C154.216 0.803866 156.55 0.791106 158.781 0.765587C161.012 0.740067 162.576 0.727307 163.474 0.727307C169.09 0.727307 173.489 1.67153 176.669 3.55998C179.849 5.44843 181.439 8.12798 181.439 11.5986C181.439 14.7375 180.182 17.3533 177.669 19.4459C175.181 21.513 171.809 22.8528 167.552 23.4652C169.937 23.6949 171.86 24.1415 173.322 24.805C174.81 25.443 175.989 26.4 176.861 27.676C177.733 28.9519 178.438 30.6617 178.977 32.8054L181.208 41.4182C181.49 42.4645 181.99 43.1536 182.708 43.4853C183.452 43.7916 184.375 43.9702 185.478 44.0212C186.299 44.0468 187.055 43.8426 187.748 43.4088C188.44 42.9749 189.107 42.4135 189.748 41.7245L190.479 42.758C189.299 44.0595 188.133 44.9782 186.978 45.5141C185.824 46.0756 184.427 46.3563 182.785 46.3563C180.759 46.3563 179.028 45.7821 177.592 44.6337C176.156 43.4853 175.143 41.7883 174.553 39.5426L172.668 32.5374C171.873 29.5516 170.745 27.3952 169.283 26.0682C167.821 24.7412 165.616 24.0777 162.666 24.0777H155.28V38.8535C155.28 40.3337 155.447 41.4565 155.78 42.2221C156.139 42.9622 156.845 43.4726 157.896 43.7533C158.948 44.0085 160.538 44.1871 162.666 44.2892V45.4759C161.692 45.4248 160.32 45.3865 158.55 45.361C156.781 45.31 154.678 45.2845 152.241 45.2845C149.83 45.2845 147.74 45.31 145.971 45.361C144.227 45.3865 142.88 45.4248 141.932 45.4759ZM161.628 1.91397H155.28V22.9293H161.82C170.668 22.9293 175.092 19.3566 175.092 12.2111C175.092 8.56181 173.989 5.9333 171.783 4.32556C169.603 2.71783 166.218 1.91397 161.628 1.91397Z" fill="white"></path>
  <path d="M186.438 45.4759V44.2892C188.413 44.085 190.042 43.6257 191.324 42.9111C192.606 42.1966 193.658 40.9334 194.478 39.1215L212.174 0H214.097L232.716 39.8488C233.383 41.2524 234.306 42.3114 235.486 43.026C236.666 43.7405 238.281 44.1616 240.333 44.2892V45.4759C238.948 45.4248 237.435 45.3865 235.794 45.361C234.178 45.31 232.549 45.2845 230.908 45.2845C228.421 45.2845 226.189 45.31 224.215 45.361C222.266 45.3865 220.727 45.4248 219.598 45.4759V44.2892C223.189 44.2382 225.394 43.8171 226.215 43.026C227.036 42.2349 226.959 40.793 225.984 38.7004L221.329 28.7095H200.518L199.441 31.0063C197.363 35.4211 196.774 38.7642 197.671 41.0354C198.594 43.2812 200.774 44.3657 204.211 44.2892V45.4759C203.031 45.4503 201.518 45.4121 199.672 45.361C197.851 45.31 195.979 45.2845 194.055 45.2845C192.978 45.2845 191.939 45.31 190.939 45.361C189.965 45.3865 188.464 45.4248 186.438 45.4759ZM201.095 27.5228H220.829L211.174 5.12943L201.095 27.5228Z" fill="white"></path>
  <path d="M88.6613 67.7744C88.6613 68.9606 88.2503 69.9491 87.4282 70.7398C86.6198 71.517 85.3798 71.9056 83.7082 71.9056H80.9542V77.8568H79.0839V63.6024H83.7082C85.325 63.6024 86.5513 63.991 87.3871 64.7681C88.2365 65.5452 88.6613 66.5474 88.6613 67.7744ZM83.7082 70.3717C84.7495 70.3717 85.5168 70.1468 86.0101 69.6968C86.5033 69.2469 86.7499 68.6061 86.7499 67.7744C86.7499 66.0156 85.736 65.1362 83.7082 65.1362H80.9542V70.3717H83.7082Z" fill="white"></path>
  <path d="M106.304 74.6869H100.056L98.9053 77.8568H96.9323L102.111 63.6842H104.269L109.428 77.8568H107.455L106.304 74.6869ZM105.77 73.1735L103.18 65.9747L100.591 73.1735H105.77Z" fill="white"></path>
  <path d="M126.079 77.8568L122.667 72.0283H120.406V77.8568H118.536V63.6024H123.16C124.243 63.6024 125.154 63.7864 125.894 64.1546C126.647 64.5227 127.209 65.0203 127.579 65.6475C127.949 66.2747 128.134 66.9905 128.134 67.7949C128.134 68.7765 127.846 69.6423 127.271 70.3922C126.709 71.142 125.86 71.6397 124.722 71.8851L128.319 77.8568H126.079ZM120.406 70.5353H123.16C124.174 70.5353 124.935 70.2899 125.442 69.7991C125.949 69.2946 126.202 68.6266 126.202 67.7949C126.202 66.9496 125.949 66.2951 125.442 65.8316C124.948 65.368 124.188 65.1362 123.16 65.1362H120.406V70.5353Z" fill="white"></path>
  <path d="M139.761 63.6024V77.8568H137.891V63.6024H139.761Z" fill="white"></path>
  <path d="M154.342 78C153.396 78 152.547 77.8364 151.793 77.5092C151.053 77.1683 150.471 76.7048 150.046 76.1185C149.621 75.5186 149.402 74.8301 149.389 74.0529H151.382C151.451 74.721 151.725 75.2868 152.204 75.7504C152.697 76.2003 153.41 76.4253 154.342 76.4253C155.232 76.4253 155.931 76.2071 156.438 75.7708C156.959 75.3209 157.219 74.7483 157.219 74.0529C157.219 73.5076 157.068 73.0645 156.767 72.7236C156.465 72.3828 156.089 72.1237 155.636 71.9465C155.184 71.7692 154.575 71.5783 153.807 71.3738C152.862 71.1284 152.101 70.883 151.526 70.6376C150.964 70.3922 150.478 70.0104 150.067 69.4923C149.669 68.9606 149.471 68.2516 149.471 67.3654C149.471 66.5883 149.669 65.8997 150.067 65.2998C150.464 64.6999 151.019 64.2364 151.731 63.9092C152.458 63.5819 153.287 63.4183 154.218 63.4183C155.561 63.4183 156.657 63.7524 157.507 64.4204C158.37 65.0885 158.856 65.9747 158.966 67.0791H156.911C156.842 66.5337 156.554 66.0565 156.047 65.6475C155.541 65.2248 154.869 65.0135 154.033 65.0135C153.252 65.0135 152.615 65.218 152.122 65.627C151.629 66.0224 151.382 66.5814 151.382 67.304C151.382 67.8221 151.526 68.2448 151.814 68.572C152.115 68.8992 152.478 69.1515 152.903 69.3287C153.341 69.4923 153.951 69.6832 154.732 69.9013C155.678 70.1604 156.438 70.4194 157.013 70.6785C157.589 70.9239 158.082 71.3125 158.493 71.8442C158.904 72.3623 159.11 73.0713 159.11 73.9711C159.11 74.6665 158.925 75.3209 158.555 75.9344C158.185 76.548 157.637 77.0456 156.911 77.4274C156.184 77.8091 155.328 78 154.342 78Z" fill="white"></path>
</svg>
