<?xml version="1.0" encoding="UTF-8"?>
<svg xmlns="http://www.w3.org/2000/svg" width="240" height="46" viewBox="0 0 240 46" fill="none">
  <path d="M24.2903 2.77778C24.8925 5.85862 25.2903 8.74282 25.4839 11.4304C25.1613 11.6707 24.4409 11.8018 23.3226 11.8237C23.1075 11.1245 22.8925 10.5017 22.6774 9.95549C22.4839 9.38739 22.2366 8.79744 21.9355 8.18565C21.6344 7.57385 21.3011 7.03852 20.9355 6.57967C20.5914 6.12082 20.172 5.6729 19.6774 5.2359C19.1828 4.7989 18.6452 4.43838 18.0645 4.15433C17.4839 3.87028 16.8065 3.65178 16.0323 3.49883C15.2796 3.32403 14.4516 3.23663 13.5484 3.23663C11.6344 3.23663 9.94624 4.0123 8.48387 5.56365C7.04301 7.115 6.32258 8.84114 6.32258 10.7421C6.32258 11.7909 6.55914 12.7851 7.03226 13.7246C7.50538 14.6423 8.06452 15.418 8.70968 16.0516C9.35484 16.6634 10.1935 17.2752 11.2258 17.887C12.2796 18.4988 13.1613 18.9577 13.871 19.2636C14.5806 19.5476 15.4624 19.8972 16.5161 20.3124C17.5699 20.7275 18.2366 20.9897 18.5161 21.099C19.8065 21.6671 20.9462 22.2789 21.9355 22.9344C22.9462 23.568 23.8925 24.3546 24.7742 25.2942C25.6774 26.2119 26.3656 27.3044 26.8387 28.5717C27.3118 29.839 27.5484 31.2374 27.5484 32.7669C27.5484 34.8863 26.9892 36.9183 25.871 38.863C24.7527 40.8076 23.2473 42.3808 21.3548 43.5826C19.0323 45.0465 16.3118 45.7785 13.1935 45.7785C11.1075 45.7785 8.91398 45.5272 6.6129 45.0247C4.33333 44.5003 2.56989 44.2381 1.32258 44.2381C0.655914 41.4194 0.215054 38.0218 0 34.0451C0.688172 33.6736 1.4086 33.6081 2.16129 33.8484C3.53763 40.2068 7.39785 43.3859 13.7419 43.3859C16.3871 43.3859 18.4194 42.6867 19.8387 41.2883C21.2796 39.8681 22 37.8142 22 35.1266C22 33.9031 21.8065 32.7887 21.4194 31.7836C21.0538 30.7567 20.6237 29.9373 20.129 29.3255C19.6559 28.6918 18.9677 28.091 18.0645 27.5229C17.1828 26.9329 16.4409 26.5068 15.8387 26.2446C15.2581 25.9824 14.4194 25.6438 13.3226 25.2286C12.2473 24.7916 11.5161 24.4857 11.129 24.3109C9.21505 23.4588 7.6129 22.5738 6.32258 21.6561C5.03226 20.7166 3.91398 19.4602 2.96774 17.887C2.04301 16.3138 1.58065 14.544 1.58065 12.5775C1.58065 9.12519 2.80645 6.3284 5.25806 4.1871C7.73118 2.02396 10.6989 0.942383 14.1613 0.942383C16.6774 0.942383 18.8387 1.22643 20.6452 1.79453C22.4731 2.36263 23.6882 2.69038 24.2903 2.77778Z" fill="white"></path>
  <path d="M46.4839 30.0138H42.7097V40.0757C42.7097 40.753 42.914 41.4194 43.3226 42.0749C43.7527 42.7304 44.2581 43.0582 44.8387 43.0582H50.3226C53.7634 43.0582 56.1398 40.611 57.4516 35.7166C58.0753 35.5418 58.6882 35.6292 59.2903 35.9788C58.6667 39.6496 58.0107 42.7414 57.3226 45.2541C54.4194 45.1667 52.086 45.123 50.3226 45.123H40.129C37.0538 45.1667 34.5914 45.2104 32.7419 45.2541C32.5269 45.0793 32.4194 44.7297 32.4194 44.2053C32.4194 43.6591 32.5269 43.2767 32.7419 43.0582C34.8495 42.8834 36.1613 42.4901 36.6774 41.8783C37.2151 41.2665 37.4839 39.6168 37.4839 36.9293V22.4427C37.4839 19.7552 37.2151 18.1055 36.6774 17.4937C36.1613 16.8601 34.8495 16.4668 32.7419 16.3138C32.5269 16.0953 32.4194 15.7239 32.4194 15.1995C32.4194 14.6532 32.5269 14.2927 32.7419 14.1179L40.0645 14.249H53.7419C54.3226 14.249 55.2258 14.1616 56.4516 13.9868C56.5806 13.9868 56.6452 14.0524 56.6452 14.1835C56.9462 15.2541 57.3441 17.9198 57.8387 22.1805C57.2581 22.4427 56.6667 22.552 56.0645 22.5083C55.3548 20.2796 54.6237 18.7173 53.871 17.8215C53.1183 16.9256 51.7957 16.4777 49.9032 16.4777H44.8387C44.2151 16.4777 43.6989 16.6416 43.2903 16.9693C42.9032 17.2971 42.7097 17.7559 42.7097 18.3459V27.8834H46.4839C47.4516 27.8834 48.1935 27.8288 48.7097 27.7195C49.2473 27.5884 49.6774 27.4901 50 27.4245C50.3441 27.359 50.5806 27.1077 50.7097 26.6707C50.8387 26.2119 50.914 25.8841 50.9355 25.6875C50.957 25.4908 50.9892 24.9664 51.0323 24.1143C51.2043 23.9395 51.5054 23.8521 51.9355 23.8521C52.3871 23.8521 52.6989 23.9395 52.871 24.1143C52.7849 26.343 52.7419 27.9271 52.7419 28.8666C52.7419 29.544 52.7849 31.1827 52.871 33.7829C52.6989 33.9577 52.3871 34.0451 51.9355 34.0451C51.5054 34.0451 51.2043 33.9577 51.0323 33.7829C50.9462 32.2534 50.7527 31.3029 50.4516 30.9315C49.8925 30.3197 48.5699 30.0138 46.4839 30.0138Z" fill="white"></path>
  <path d="M83.2581 21.8856C83.2581 19.8754 82.828 18.4005 81.9677 17.461C81.1075 16.5214 79.7312 16.0516 77.8387 16.0516C74.9785 16.0516 73.5484 16.7508 73.5484 18.1492V28.9977H75.8064C78.3656 28.9977 80.2473 28.4515 81.4516 27.359C82.6559 26.2665 83.2581 24.442 83.2581 21.8856ZM73.5484 36.9293C73.5484 39.6168 73.7527 41.2665 74.1613 41.8783C74.5914 42.4682 75.6452 42.8615 77.3226 43.0582C77.4946 43.2767 77.5806 43.6591 77.5806 44.2053C77.5806 44.7297 77.4946 45.0793 77.3226 45.2541C73.5376 45.1667 71.4193 45.123 70.9677 45.123C69.7419 45.123 67.2796 45.1667 63.5806 45.2541C63.4086 45.0793 63.3226 44.7297 63.3226 44.2053C63.3226 43.6591 63.4086 43.2767 63.5806 43.0582C65.6882 42.8834 67 42.4901 67.5161 41.8783C68.0538 41.2665 68.3226 39.6168 68.3226 36.9293V22.4427C68.3226 19.7552 68.0538 18.1055 67.5161 17.4937C67 16.8601 65.6882 16.4668 63.5806 16.3138C63.4086 16.0953 63.3226 15.7239 63.3226 15.1995C63.3226 14.6532 63.4086 14.2927 63.5806 14.1179C67.3656 14.2053 69.8064 14.249 70.9032 14.249C71.828 14.249 73.0538 14.2272 74.5806 14.1835C76.1075 14.1398 77.1075 14.1179 77.5806 14.1179C81.9032 14.1179 84.8602 14.7188 86.4516 15.9205C88.0645 17.1223 88.871 19.1106 88.871 21.8856C88.871 24.1143 88.1183 25.9278 86.6129 27.3262C85.129 28.7246 83.2473 29.5331 80.9677 29.7516V29.8171C81.9785 29.9045 82.9247 30.3961 83.8064 31.292C84.6882 32.1878 85.3441 33.1929 85.7742 34.3073L88.0323 39.3546C88.6989 40.8404 89.3333 41.8564 89.9355 42.4027C90.5591 42.9271 91.4624 43.1893 92.6452 43.1893C93.0753 43.7355 93.2043 44.402 93.0323 45.1886C92.2796 45.5819 91.0107 45.7785 89.2258 45.7785C87.7204 45.7785 86.4731 45.3087 85.4839 44.3692C84.4946 43.4296 83.5376 41.9111 82.6129 39.8135L80.8064 35.7821C80.4193 34.93 80.0323 34.2308 79.6452 33.6846C79.2796 33.1165 78.6021 32.5702 77.6129 32.0458C76.6237 31.4996 75.4516 31.2264 74.0968 31.2264H73.5484V36.9293Z" fill="white"></path>
  <path d="M116.806 21.8856C116.806 19.8754 116.376 18.4005 115.516 17.461C114.656 16.5214 113.28 16.0516 111.387 16.0516C108.527 16.0516 107.097 16.7508 107.097 18.1492V28.9977H109.355C111.914 28.9977 113.796 28.4515 115 27.359C116.204 26.2665 116.806 24.442 116.806 21.8856ZM107.097 36.9293C107.097 39.6168 107.301 41.2665 107.71 41.8783C108.14 42.4682 109.194 42.8615 110.871 43.0582C111.043 43.2767 111.129 43.6591 111.129 44.2053C111.129 44.7297 111.043 45.0793 110.871 45.2541C107.086 45.1667 104.968 45.123 104.516 45.123C103.29 45.123 100.828 45.1667 97.129 45.2541C96.957 45.0793 96.871 44.7297 96.871 44.2053C96.871 43.6591 96.957 43.2767 97.129 43.0582C99.2366 42.8834 100.548 42.4901 101.065 41.8783C101.602 41.2665 101.871 39.6168 101.871 36.9293V22.4427C101.871 19.7552 101.602 18.1055 101.065 17.4937C100.548 16.8601 99.2366 16.4668 97.129 16.3138C96.957 16.0953 96.871 15.7239 96.871 15.1995C96.871 14.6532 96.957 14.2927 97.129 14.1179C100.914 14.2053 103.355 14.249 104.452 14.249C105.376 14.249 106.602 14.2272 108.129 14.1835C109.656 14.1398 110.656 14.1179 111.129 14.1179C115.452 14.1179 118.409 14.7188 120 15.9205C121.613 17.1223 122.419 19.1106 122.419 21.8856C122.419 24.1143 121.667 25.9278 120.161 27.3262C118.677 28.7246 116.796 29.5331 114.516 29.7516V29.8171C115.527 29.9045 116.473 30.3961 117.355 31.292C118.237 32.1878 118.892 33.1929 119.323 34.3073L121.581 39.3546C122.247 40.8404 122.882 41.8564 123.484 42.4027C124.108 42.9271 125.011 43.1893 126.194 43.1893C126.624 43.7355 126.753 44.402 126.581 45.1886C125.828 45.5819 124.559 45.7785 122.774 45.7785C121.269 45.7785 120.021 45.3087 119.032 44.3692C118.043 43.4296 117.086 41.9111 116.161 39.8135L114.355 35.7821C113.968 34.93 113.581 34.2308 113.194 33.6846C112.828 33.1165 112.151 32.5702 111.161 32.0458C110.172 31.4996 109 31.2264 107.645 31.2264H107.097V36.9293Z" fill="white"></path>
  <path d="M134.645 38.0764L144.871 15.1995C145.409 14.0414 146.14 13.4515 147.065 13.4296C148.376 13.4296 149.258 13.9977 149.71 15.1339L159.097 38.1419C159.183 38.3167 159.312 38.6336 159.484 39.0924C159.656 39.5294 159.763 39.8025 159.806 39.9118C159.849 40.021 159.946 40.2505 160.097 40.6001C160.269 40.9278 160.387 41.1354 160.452 41.2228C160.516 41.3102 160.634 41.4741 160.806 41.7144C160.978 41.9329 161.129 42.064 161.258 42.1077C161.387 42.1514 161.559 42.2497 161.774 42.4027C162.011 42.5556 162.247 42.654 162.484 42.6977C162.72 42.7414 162.989 42.796 163.29 42.8615C163.613 42.9271 163.968 42.9926 164.355 43.0582C164.527 43.2767 164.613 43.6591 164.613 44.2053C164.634 44.7297 164.548 45.0793 164.355 45.2541C161.086 45.1667 159.151 45.123 158.548 45.123C157.129 45.123 154.796 45.1667 151.548 45.2541C151.376 45.0793 151.29 44.7297 151.29 44.2053C151.29 43.6591 151.376 43.2767 151.548 43.0582C153.441 42.9271 154.452 42.5447 154.581 41.9111C154.731 41.2774 154.409 40.1521 153.613 38.5352L151.677 33.6518H140.387C139.634 33.6518 139.151 33.8921 138.935 34.3728L137.097 38.5352C136.344 40.2395 136.129 41.3867 136.452 41.9766C136.796 42.5447 137.871 42.9052 139.677 43.0582C139.849 43.2767 139.935 43.6591 139.935 44.2053C139.935 44.7297 139.849 45.0793 139.677 45.2541C136.409 45.1667 134.29 45.123 133.323 45.123C132.355 45.123 130.903 45.1667 128.968 45.2541C128.796 45.0793 128.71 44.7297 128.71 44.2053C128.71 43.6591 128.796 43.2767 128.968 43.0582C129.849 42.9708 130.581 42.8288 131.161 42.6321C131.763 42.4136 132.28 42.0422 132.71 41.5178C133.161 40.9715 133.484 40.5127 133.677 40.1412C133.892 39.7479 134.215 39.0596 134.645 38.0764ZM150.903 31.3575L146.129 19.0014C145.914 18.914 145.763 18.9358 145.677 19.0669L140.71 30.4071C140.71 31.0407 141.151 31.3575 142.032 31.3575H150.903Z" fill="white"></path>
  <path d="M175.677 36.9293C175.677 39.6168 175.946 41.2665 176.484 41.8783C177.021 42.4682 178.344 42.8615 180.452 43.0582C180.667 43.2767 180.774 43.6591 180.774 44.2053C180.774 44.7297 180.667 45.0793 180.452 45.2541C177.806 45.1667 175.688 45.123 174.097 45.123C172.548 45.123 170.462 45.1667 167.839 45.2541C167.667 45.0793 167.581 44.7297 167.581 44.2053C167.581 43.6591 167.667 43.2767 167.839 43.0582C169.946 42.9271 171.258 42.5447 171.774 41.9111C172.312 41.2774 172.581 39.6168 172.581 36.9293V18.5425C171.871 17.2097 170.57 16.4668 168.677 16.3138C168.29 16.3138 168.097 16.1827 168.097 15.9205V14.3146L168.226 14.1179L177.613 14.249L192.742 35.1266C193.237 35.804 193.634 36.2847 193.935 36.5687C194.237 36.8528 194.462 36.9293 194.613 36.7982C194.763 36.6671 194.86 36.4704 194.903 36.2082C194.946 35.9242 194.968 35.5199 194.968 34.9955V22.4427C194.968 19.7552 194.699 18.1055 194.161 17.4937C193.645 16.8601 192.333 16.4668 190.226 16.3138C190.011 16.0953 189.903 15.7239 189.903 15.1995C189.903 14.6532 190.011 14.2927 190.226 14.1179C192.871 14.2053 194.968 14.249 196.516 14.249C198.108 14.249 200.215 14.2053 202.839 14.1179C203.011 14.2927 203.097 14.6532 203.097 15.1995C203.097 15.7239 203.011 16.0953 202.839 16.3138C200.731 16.4886 199.409 16.8819 198.871 17.4937C198.355 18.1055 198.097 19.7552 198.097 22.4427V44.107C198.097 45.3087 197.613 45.9205 196.645 45.9424C195.548 45.9424 194.527 45.4508 193.581 44.4675L178.065 23.426C177.484 22.7049 177.043 22.2242 176.742 21.9839C176.441 21.7435 176.183 21.7872 175.968 22.115C175.774 22.4209 175.677 23.1092 175.677 24.1798V36.9293Z" fill="white"></path>
  <path d="M223.29 15.7894C220.602 15.7894 218.28 16.9912 216.323 19.3947C214.366 21.7763 213.387 25.1194 213.387 29.4238C213.387 33.5316 214.409 36.9183 216.452 39.584C218.495 42.2497 221.129 43.5826 224.355 43.5826C227.344 43.5826 229.742 42.3918 231.548 40.0101C233.355 37.6066 234.258 34.3619 234.258 30.276C234.258 25.9278 233.183 22.4318 231.032 19.788C228.903 17.1223 226.323 15.7894 223.29 15.7894ZM240 29.3583C240 33.9686 238.527 37.8579 235.581 41.0261C232.634 44.1944 228.559 45.7785 223.355 45.7785C218.86 45.7785 215.118 44.3146 212.129 41.3867C209.14 38.4588 207.645 34.7333 207.645 30.2104C207.645 25.3379 209.194 21.3502 212.29 18.2476C215.409 15.123 219.28 13.5607 223.903 13.5607C228.355 13.5607 232.151 15.0356 235.29 17.9854C238.43 20.9132 240 24.7042 240 29.3583Z" fill="white"></path>
</svg>
