<?xml version="1.0" encoding="UTF-8"?>
<svg xmlns="http://www.w3.org/2000/svg" width="241" height="36" viewBox="0 0 241 36" fill="none">
  <g clip-path="url(#clip0_64628_1279)">
    <path d="M7.27296 31.723H15.4409L18.4625 28.6897V24.723H22.2396V30.603L17.3294 35.7363H5.43165L0.521484 30.603V5.86966L5.43165 0.736328H17.3294L22.2396 5.86966V11.7497H18.4625V7.783L15.4881 4.74966H7.32017L4.86509 7.223V29.2497L7.27296 31.723ZM34.2604 0.736328H46.8663V4.46966H44.6945L53.004 32.003H55.3647V35.7363H45.3555V32.003H48.6604L46.4886 24.8163H34.6381L32.4663 32.003H35.7712V35.7363H25.762V32.003H28.1227L36.4322 4.46966H34.2604V0.736328ZM40.5398 5.16966L35.7712 21.083H45.3555L40.5398 5.16966ZM76.7629 22.2963L74.4967 20.0097H64.6764L59.8606 15.0163V5.86966L64.7708 0.736328H75.7242L80.6344 5.86966V11.7497H76.7157V7.643L73.8829 4.74966H66.6593L64.2042 7.223V13.663L66.5177 15.9963H76.338L81.1065 20.943V30.603L76.1964 35.7363H64.2987L59.3885 30.603V24.723H63.3072V28.8297L66.1872 31.723H74.3551L76.7629 29.2497V22.2963ZM88.17 0.736328H110.644V9.883H106.867V4.46966H95.8185V16.3697H106.867V20.103H95.8185V32.003H106.867V26.5897H110.644V35.7363H88.17V32.003H91.4749V4.46966H88.17V0.736328ZM118.186 0.736328H129.611V4.46966H125.834V32.003H136.127V26.5897H139.715V35.7363H118.186V32.003H121.491V4.46966H118.186V0.736328ZM161.794 0.736328H172.275V4.46966H169.443V30.603L164.532 35.7363H151.69L146.78 30.603V4.46966H143.948V0.736328H154.429V4.46966H151.124V29.2497L153.532 31.723H162.644L165.099 29.2497V4.46966H161.794V0.736328ZM200.804 35.7363L187.018 6.05633V32.003H190.323V35.7363H179.369V32.003H182.674V4.46966H179.369V0.736328H189.189L202.976 30.463V4.46966H199.671V0.736328H210.624V4.46966H207.319V35.7363H200.804ZM217.684 0.736328H240.157V9.883H236.38V4.46966H225.332V16.3697H236.38V20.103H225.332V32.003H236.38V26.5897H240.157V35.7363H217.684V32.003H220.988V4.46966H217.684V0.736328Z" fill="white"></path>
  </g>
  <defs>
    <clipPath id="clip0_64628_1279">
      <rect width="240" height="35" fill="white" transform="translate(0.333008 0.736328)"></rect>
    </clipPath>
  </defs>
</svg>
