<?xml version="1.0" encoding="UTF-8"?>
<svg xmlns="http://www.w3.org/2000/svg" width="240" height="52" viewBox="0 0 240 52" fill="none">
  <path d="M39.8793 9.13074C40.1782 8.26129 40.3277 7.4948 40.3277 6.83128C40.3277 6.37367 40.2587 5.96183 40.1207 5.59574C39.6608 4.40597 38.4304 3.81109 36.4295 3.81109H34.0492V0.9625H51.7464V3.81109C50.2515 3.81109 48.9981 4.30301 47.9862 5.28686C46.8363 6.38511 45.6634 8.34137 44.4674 11.1556L29.8749 50.1092H21.4575L7.55498 11.945C6.38206 8.85618 5.16315 6.68255 3.89823 5.42414C2.81731 4.34877 1.5179 3.81109 0 3.81109V0.9625C1.37991 0.482016 3.03579 0.241773 4.96766 0.241773C7.03752 0.241773 8.92339 0.9053 10.6253 2.23235C12.7871 3.90261 14.3165 6.20207 15.2135 9.13074L27.5291 44.7209L39.8793 9.13074Z" fill="white"></path>
  <path d="M74.8599 40.6368V30.5466C74.0089 31.0957 72.606 31.6334 70.6511 32.1597L69.4092 32.4686L68.1673 32.8118C67.1784 33.0863 66.3504 33.338 65.6835 33.5668C61.7738 34.9625 59.8189 37.3077 59.8189 40.6025C59.8189 42.2956 60.5548 43.7142 62.0267 44.8582C63.3147 45.8649 64.7521 46.3683 66.3389 46.3683C67.8798 46.3683 69.5012 45.8306 71.2031 44.7552C73.02 43.5883 74.2389 42.2155 74.8599 40.6368ZM82.4838 46.9861C82.9668 47.2149 83.4958 47.3293 84.0707 47.3293C84.5537 47.3293 85.0827 47.2492 85.6576 47.089V50.0749C83.8177 50.6011 82.2194 50.8643 80.8624 50.8643C79.6435 50.8643 78.5971 50.6698 77.7232 50.2808C76.0903 49.5715 75.1243 48.1987 74.8254 46.1624L74.8599 46.128C73.6409 47.478 72.1345 48.5648 70.3407 49.3885C68.1788 50.3723 65.856 50.8643 63.3721 50.8643C60.5663 50.8643 58.2665 50.155 56.4726 48.7364C54.4718 47.1119 53.4713 44.7896 53.4713 41.7694C53.4713 38.2916 54.5982 35.5688 56.8521 33.6011C58.462 32.1826 60.9573 30.9699 64.3381 29.9632L66.3734 29.3797L67.3394 29.1052L68.3398 28.8306C69.8347 28.3959 70.9961 27.984 71.8241 27.5951C74.1009 26.5426 75.2393 25.0668 75.2393 23.1678C75.2393 21.2001 74.3769 19.7929 72.652 18.9464C71.3181 18.1684 69.7427 17.7795 67.9258 17.7795C66.2469 17.7795 64.821 17.9396 63.6481 18.2599C63.2342 18.3743 62.8547 18.5002 62.5097 18.6375C61.9347 18.8892 61.5668 19.301 61.4058 19.873C61.3368 20.0789 61.3023 20.2848 61.3023 20.4908C61.3023 20.8568 61.4173 21.2115 61.6473 21.5547C62.0152 22.1267 62.1992 22.8017 62.1992 23.5796C62.1992 24.7007 61.7853 25.6503 60.9573 26.4282C60.1754 27.1603 59.2669 27.5264 58.232 27.5264C57.887 27.5264 57.5075 27.4578 57.0936 27.3205C56.6106 27.1832 56.1851 26.9659 55.8172 26.6684C54.8052 25.8905 54.2993 24.7694 54.2993 23.305C54.2993 20.5594 55.6217 18.3743 58.2665 16.7498C60.7503 15.1025 63.9011 14.2788 67.7188 14.2788C76.7342 14.2788 81.2419 18.8091 81.2419 27.8696V42.4901L81.2764 44.9268C81.2764 45.8878 81.6789 46.5742 82.4838 46.9861Z" fill="white"></path>
  <path d="M94.765 6.04191C94.765 5.08094 94.3625 4.40597 93.5576 4.01701C93.0746 3.78821 92.5456 3.67381 91.9707 3.67381C91.4877 3.67381 90.9587 3.75389 90.3838 3.91405V0.89386C92.2237 0.367615 93.8221 0.104492 95.179 0.104492C96.3979 0.104492 97.4443 0.298974 98.3182 0.687938C100.25 1.51163 101.216 3.47932 101.216 6.59103V44.9612C101.216 45.9221 101.63 46.6085 102.458 47.0204C102.941 47.2492 103.47 47.3636 104.045 47.3636C104.528 47.3636 105.045 47.2835 105.597 47.1233V50.1092C103.78 50.6354 102.182 50.8986 100.802 50.8986C99.5832 50.8986 98.5367 50.7041 97.6628 50.3151C95.7309 49.4914 94.765 47.5237 94.765 44.412V6.04191Z" fill="white"></path>
  <path d="M164.692 46.231C165.244 46.7344 166.267 46.9861 167.762 46.9861V50.0406H152.583V46.9861C154.009 46.9861 154.986 46.7458 155.515 46.2653C156.435 45.4874 156.918 43.8972 156.964 41.4948L156.999 29.2768C156.999 25.2498 156.332 22.3555 154.998 20.5937C153.756 18.9692 151.859 18.157 149.306 18.157C147.006 18.157 145.258 19.1866 144.062 21.2458C143.073 22.8703 142.579 24.8037 142.579 27.0459L142.544 41.083C142.544 43.6913 143.004 45.4073 143.924 46.231C144.476 46.7344 145.488 46.9861 146.96 46.9861V50.0406H131.781V46.9861C133.184 46.9861 134.173 46.7458 134.748 46.2653C135.645 45.4874 136.116 43.8972 136.162 41.4948L136.197 29.2768C136.197 25.2498 135.518 22.3555 134.161 20.5937C132.942 18.9692 131.057 18.157 128.504 18.157C126.204 18.157 124.444 19.1866 123.226 21.2458C122.26 22.8703 121.777 24.8037 121.777 27.0459L121.742 41.083H121.777C121.777 43.6913 122.225 45.4073 123.122 46.231C123.697 46.7344 124.732 46.9861 126.227 46.9861V50.0406H110.944V46.9861C112.37 46.9861 113.371 46.7344 113.946 46.231C114.866 45.4302 115.36 43.8057 115.429 41.3575V20.2505C115.429 19.2896 115.015 18.6031 114.187 18.1913C113.704 17.9625 113.175 17.8481 112.6 17.8481C112.117 17.8481 111.588 17.9282 111.013 18.0883V15.0682C112.853 14.5419 114.463 14.2788 115.843 14.2788C117.039 14.2788 118.074 14.4733 118.948 14.8622C120.466 15.5258 121.363 16.6926 121.639 18.3629L121.708 18.2256C121.823 17.9739 121.972 17.7223 122.156 17.4706C122.386 17.1731 122.639 16.8871 122.915 16.6126C123.651 15.9262 124.571 15.3885 125.675 14.9995C127.032 14.519 128.653 14.2788 130.539 14.2788C136.128 14.2788 139.715 16.1321 141.302 19.8387L141.371 19.7014L141.44 19.4612L141.751 18.7747C142.119 18.0883 142.59 17.4591 143.165 16.8871C144.959 15.1482 147.535 14.2788 150.893 14.2788C155.354 14.2788 158.563 15.3542 160.517 17.5049C162.449 19.6099 163.415 23.019 163.415 27.7324L163.381 41.083C163.381 43.6913 163.818 45.4073 164.692 46.231Z" fill="white"></path>
  <path d="M189.013 17.8824C186.207 17.8824 184.033 19.0264 182.492 21.3145C181.067 23.4423 180.354 26.2108 180.354 29.62H197.74C197.74 26.1879 197.016 23.408 195.567 21.2801C194.026 19.015 191.841 17.8824 189.013 17.8824ZM203.467 44.0345C202.547 45.9336 201.202 47.478 199.431 48.6678C196.947 50.2922 193.785 51.1045 189.944 51.1045C184.585 51.1045 180.446 49.6516 177.525 46.7458C174.397 43.6112 172.833 38.9437 172.833 32.7431C172.833 26.1994 174.409 21.3488 177.559 18.1913C180.296 15.4686 184.079 14.1072 188.909 14.1072C193.762 14.1072 197.545 15.5029 200.259 18.2943C203.41 21.5433 204.985 26.5998 204.985 33.4638C196.728 33.441 190.542 33.4295 186.425 33.4295C182.285 33.4295 180.216 33.441 180.216 33.4638C180.216 38.7034 181.262 42.4443 183.355 44.6866C185.034 46.4941 187.495 47.3979 190.737 47.3979C193.221 47.3979 195.349 46.7687 197.119 45.5103C197.809 45.0298 198.419 44.4692 198.948 43.8286C199.362 43.3252 199.73 42.799 200.052 42.2499L203.467 44.0345Z" fill="white"></path>
  <path d="M221.544 19.3239C222.142 18.0883 223.119 17.0244 224.476 16.1321C226.316 14.9194 228.524 14.3131 231.1 14.3131C233.284 14.3131 235.354 14.9309 237.309 16.1664C239.103 17.6307 240 19.3811 240 21.4174C240 22.7673 239.632 23.8084 238.896 24.5406C238.206 25.2041 237.286 25.5359 236.136 25.5359C235.101 25.5359 234.204 25.1698 233.445 24.4376C232.687 23.7054 232.307 22.7902 232.307 21.692C232.307 21.5547 232.33 21.3717 232.376 21.1429L232.48 20.5251C232.572 19.9531 232.618 19.5298 232.618 19.2552C232.595 18.2714 231.951 17.7795 230.686 17.7795C230.341 17.7795 229.961 17.8138 229.547 17.8824C228.19 18.1112 226.937 18.729 225.787 19.7357C224.522 20.8568 223.545 22.2983 222.855 24.0601C222.073 26.0049 221.682 28.2472 221.682 30.7869V40.9457C221.958 43.6227 222.763 45.3844 224.097 46.231C225.362 46.7344 227.017 46.9861 229.064 46.9861V50.0406H210.712V46.9861C212.206 46.9861 213.241 46.7344 213.816 46.231C214.759 45.3387 215.265 43.5769 215.334 40.9457V20.1132C215.311 19.198 214.897 18.5345 214.092 18.1227C213.632 17.8939 213.126 17.7795 212.574 17.7795C212.091 17.7795 211.574 17.8595 211.022 18.0197V15.1025C212.816 14.5762 214.38 14.3131 215.714 14.3131C216.703 14.3131 217.669 14.5305 218.611 14.9652C219.462 15.3084 220.152 15.9376 220.681 16.8528C221.118 17.6307 221.406 18.4544 221.544 19.3239Z" fill="white"></path>
</svg>
