<svg xmlns="http://www.w3.org/2000/svg" width="1356" height="288" viewBox="0 0 1356 288" fill="none"><path d="M110.452 232.671C89.6795 232.671 70.8483 228.206 53.9585 219.276C37.2629 210.152 24.0617 197.63 14.3549 181.711C4.84226 165.598 0.0859375 147.446 0.0859375 127.256C0.0859375 107.066 4.84226 89.0111 14.3549 73.092C24.0617 56.9788 37.2629 44.457 53.9585 35.5268C70.8483 26.4024 89.7765 21.8403 110.743 21.8403C128.409 21.8403 144.329 24.9464 158.5 31.1588C172.867 37.3711 184.903 46.3013 194.61 57.9495L164.325 85.905C150.541 69.9859 133.457 62.0263 113.073 62.0263C100.454 62.0263 89.1941 64.8413 79.2932 70.4712C69.3923 75.907 61.6269 83.5753 55.997 93.4762C50.5612 103.377 47.8433 114.637 47.8433 127.256C47.8433 139.875 50.5612 151.134 55.997 161.035C61.6269 170.936 69.3923 178.702 79.2932 184.332C89.1941 189.767 100.454 192.485 113.073 192.485C133.457 192.485 150.541 184.429 164.325 168.315L194.61 196.271C184.903 208.113 172.867 217.141 158.5 223.353C144.134 229.565 128.118 232.671 110.452 232.671Z" fill="white"></path><path d="M195.963 72.5096H241.391V229.177H195.963V72.5096ZM218.677 50.6694C210.329 50.6694 203.535 48.2427 198.293 43.3893C193.051 38.5359 190.43 32.5177 190.43 25.3347C190.43 18.1517 193.051 12.1335 198.293 7.28009C203.535 2.4267 210.329 0 218.677 0C227.025 0 233.82 2.32963 239.061 6.98889C244.303 11.6481 246.924 17.4722 246.924 24.4611C246.924 32.0324 244.303 38.3418 239.061 43.3893C233.82 48.2427 227.025 50.6694 218.677 50.6694Z" fill="white"></path><path d="M350.601 221.606C346.136 224.906 340.603 227.43 334.003 229.177C327.596 230.73 320.899 231.507 313.91 231.507C295.079 231.507 280.616 226.75 270.52 217.238C260.425 207.725 255.378 193.747 255.378 175.304V37.8564H300.806V76.0041H339.536V110.948H300.806V174.722C300.806 181.323 302.456 186.467 305.756 190.156C309.056 193.65 313.813 195.397 320.025 195.397C327.014 195.397 333.226 193.456 338.662 189.573L350.601 221.606Z" fill="white"></path><path d="M506.791 72.5096V202.969C506.791 231.701 499.511 253.056 484.951 267.033C470.391 281.011 449.23 288 421.468 288C406.714 288 392.736 286.156 379.535 282.467C366.528 278.779 355.559 273.44 346.629 266.451L364.684 233.836C371.284 239.272 379.341 243.543 388.854 246.649C398.366 249.755 407.976 251.308 417.683 251.308C432.825 251.308 443.891 247.814 450.88 240.825C457.869 233.836 461.363 223.159 461.363 208.793V203.551C455.539 209.375 448.647 213.84 440.688 216.946C432.728 220.053 424.186 221.606 415.062 221.606C394.484 221.606 378.176 215.782 366.14 204.133C354.103 192.291 348.085 174.625 348.085 151.134V72.5096H393.513V144.437C393.513 169.869 404.093 182.584 425.254 182.584C436.126 182.584 444.862 179.09 451.462 172.101C458.063 164.918 461.363 154.338 461.363 140.36V72.5096H506.791Z" fill="white"></path><path d="M640.883 25.3347C658.938 25.3347 674.566 28.3438 687.767 34.362C701.162 40.3802 711.451 48.9222 718.634 59.9879C725.817 71.0536 729.409 84.1577 729.409 99.3003C729.409 114.249 725.817 127.353 718.634 138.613C711.451 149.678 701.162 158.22 687.767 164.239C674.566 170.063 658.938 172.975 640.883 172.975H599.824V229.177H552.649V25.3347H640.883ZM638.262 134.536C652.434 134.536 663.209 131.527 670.586 125.509C677.963 119.296 681.652 110.56 681.652 99.3003C681.652 87.8463 677.963 79.1102 670.586 73.092C663.209 66.8797 652.434 63.7735 638.262 63.7735H599.824V134.536H638.262Z" fill="white"></path><path d="M791.631 231.507C773.965 231.507 760.181 226.847 750.28 217.529C740.379 208.016 735.429 194.621 735.429 177.343V13.1041H780.856V174.722C780.856 181.323 782.507 186.467 785.807 190.156C789.301 193.65 794.155 195.397 800.367 195.397C802.697 195.397 805.026 195.106 807.356 194.524C809.88 193.941 811.821 193.262 813.18 192.485L815.218 227.721C807.647 230.245 799.785 231.507 791.631 231.507Z" fill="white"></path><path d="M966.373 72.5096V229.177H922.984V211.122C911.724 224.712 895.417 231.507 874.062 231.507C859.308 231.507 845.912 228.206 833.876 221.606C822.034 215.005 812.715 205.589 805.92 193.359C799.126 181.128 795.728 166.957 795.728 150.843C795.728 134.73 799.126 120.558 805.92 108.328C812.715 96.0971 822.034 86.6815 833.876 80.0809C845.912 73.4803 859.308 70.18 874.062 70.18C894.058 70.18 909.686 76.4894 920.946 89.1082V72.5096H966.373ZM881.924 194.233C893.378 194.233 902.891 190.35 910.462 182.584C918.034 174.625 921.819 164.044 921.819 150.843C921.819 137.642 918.034 127.159 910.462 119.393C902.891 111.434 893.378 107.454 881.924 107.454C870.276 107.454 860.667 111.434 853.095 119.393C845.524 127.159 841.738 137.642 841.738 150.843C841.738 164.044 845.524 174.625 853.095 182.584C860.667 190.35 870.276 194.233 881.924 194.233Z" fill="white"></path><path d="M970.357 229.177V201.804L1062.96 92.3114L1070.82 107.454H972.395V72.5096H1107.51V99.8827L1014.91 209.375L1006.76 194.233H1110.13V229.177H970.357Z" fill="white"></path><path d="M1270.94 72.5096V229.177H1227.55V211.122C1216.29 224.712 1199.99 231.507 1178.63 231.507C1163.88 231.507 1150.48 228.206 1138.44 221.606C1126.6 215.005 1117.28 205.589 1110.49 193.359C1103.69 181.128 1100.3 166.957 1100.3 150.843C1100.3 134.73 1103.69 120.558 1110.49 108.328C1117.28 96.0971 1126.6 86.6815 1138.44 80.0809C1150.48 73.4803 1163.88 70.18 1178.63 70.18C1198.63 70.18 1214.25 76.4894 1225.51 89.1082V72.5096H1270.94ZM1186.49 194.233C1197.95 194.233 1207.46 190.35 1215.03 182.584C1222.6 174.625 1226.39 164.044 1226.39 150.843C1226.39 137.642 1222.6 127.159 1215.03 119.393C1207.46 111.434 1197.95 107.454 1186.49 107.454C1174.85 107.454 1165.24 111.434 1157.66 119.393C1150.09 127.159 1146.31 137.642 1146.31 150.843C1146.31 164.044 1150.09 174.625 1157.66 182.584C1165.24 190.35 1174.85 194.233 1186.49 194.233Z" fill="white"></path><path d="M1315.05 235.001C1303.51 235.001 1293.8 231.061 1285.92 223.181C1278.04 215.3 1274.1 205.45 1274.1 193.629C1274.1 181.527 1278.04 171.817 1285.92 164.499C1293.8 156.9 1303.51 153.101 1315.05 153.101C1326.59 153.101 1336.3 156.9 1344.18 164.499C1352.06 171.817 1356 181.527 1356 193.629C1356 205.45 1352.06 215.3 1344.18 223.181C1336.3 231.061 1326.59 235.001 1315.05 235.001Z" fill="#FFE70B"></path></svg>