<svg width="149" height="33" viewBox="0 0 149 33" fill="none" xmlns="http://www.w3.org/2000/svg">
<path d="M12.128 26.568C9.84533 26.568 7.776 26.0773 5.92 25.096C4.08533 24.0933 2.63467 22.7173 1.568 20.968C0.522667 19.1973 0 17.2027 0 14.984C0 12.7653 0.522667 10.7813 1.568 9.032C2.63467 7.26133 4.08533 5.88533 5.92 4.904C7.776 3.90133 9.856 3.4 12.16 3.4C14.1013 3.4 15.8507 3.74133 17.408 4.424C18.9867 5.10667 20.3093 6.088 21.376 7.368L18.048 10.44C16.5333 8.69067 14.656 7.816 12.416 7.816C11.0293 7.816 9.792 8.12534 8.704 8.744C7.616 9.34133 6.76267 10.184 6.144 11.272C5.54667 12.36 5.248 13.5973 5.248 14.984C5.248 16.3707 5.54667 17.608 6.144 18.696C6.76267 19.784 7.616 20.6373 8.704 21.256C9.792 21.8533 11.0293 22.152 12.416 22.152C14.656 22.152 16.5333 21.2667 18.048 19.496L21.376 22.568C20.3093 23.8693 18.9867 24.8613 17.408 25.544C15.8293 26.2267 14.0693 26.568 12.128 26.568Z" fill="#131211"/>
<path d="M21.5247 8.968H26.5168V26.184H21.5247V8.968ZM24.0208 6.568C23.1034 6.568 22.3568 6.30133 21.7808 5.768C21.2048 5.23467 20.9167 4.57333 20.9167 3.784C20.9167 2.99467 21.2048 2.33333 21.7808 1.8C22.3568 1.26667 23.1034 1 24.0208 1C24.9381 1 25.6847 1.256 26.2607 1.768C26.8367 2.28 27.1248 2.92 27.1248 3.688C27.1248 4.52 26.8367 5.21333 26.2607 5.768C25.6847 6.30133 24.9381 6.568 24.0208 6.568Z" fill="#131211"/>
<path d="M38.5177 25.352C38.0271 25.7147 37.4191 25.992 36.6938 26.184C35.9898 26.3547 35.2538 26.44 34.4858 26.44C32.4164 26.44 30.8271 25.9173 29.7178 24.872C28.6084 23.8267 28.0538 22.2907 28.0538 20.264V5.16H33.0457V9.352H37.3018V13.192H33.0457V20.2C33.0457 20.9253 33.2271 21.4907 33.5898 21.896C33.9524 22.28 34.4751 22.472 35.1577 22.472C35.9257 22.472 36.6084 22.2587 37.2057 21.832L38.5177 25.352Z" fill="#131211"/>
<path d="M55.6813 8.968V23.304C55.6813 26.4613 54.8812 28.808 53.2812 30.344C51.6812 31.88 49.3559 32.648 46.3053 32.648C44.6839 32.648 43.1479 32.4453 41.6973 32.04C40.2679 31.6347 39.0626 31.048 38.0812 30.28L40.0653 26.696C40.7906 27.2933 41.6759 27.7627 42.7212 28.104C43.7666 28.4453 44.8226 28.616 45.8893 28.616C47.5533 28.616 48.7693 28.232 49.5373 27.464C50.3053 26.696 50.6893 25.5227 50.6893 23.944V23.368C50.0493 24.008 49.2919 24.4987 48.4173 24.84C47.5426 25.1813 46.6039 25.352 45.6012 25.352C43.3399 25.352 41.5479 24.712 40.2253 23.432C38.9026 22.1307 38.2412 20.1893 38.2412 17.608V8.968H43.2332V16.872C43.2332 19.6667 44.3959 21.064 46.7213 21.064C47.9159 21.064 48.8759 20.68 49.6012 19.912C50.3266 19.1227 50.6893 17.96 50.6893 16.424V8.968H55.6813Z" fill="#131211"/>
<path d="M70.4165 3.784C72.4005 3.784 74.1178 4.11467 75.5685 4.776C77.0405 5.43733 78.1712 6.376 78.9605 7.592C79.7498 8.808 80.1445 10.248 80.1445 11.912C80.1445 13.5547 79.7498 14.9947 78.9605 16.232C78.1712 17.448 77.0405 18.3867 75.5685 19.048C74.1178 19.688 72.4005 20.008 70.4165 20.008H65.9045V26.184H60.7205V3.784H70.4165ZM70.1285 15.784C71.6858 15.784 72.8698 15.4533 73.6805 14.792C74.4912 14.1093 74.8965 13.1493 74.8965 11.912C74.8965 10.6533 74.4912 9.69334 73.6805 9.032C72.8698 8.34933 71.6858 8.008 70.1285 8.008H65.9045V15.784H70.1285Z" fill="#131211"/>
<path d="M86.982 26.44C85.0407 26.44 83.526 25.928 82.438 24.904C81.35 23.8587 80.806 22.3867 80.806 20.488V2.44H85.798V20.2C85.798 20.9253 85.9793 21.4907 86.342 21.896C86.726 22.28 87.2593 22.472 87.942 22.472C88.198 22.472 88.454 22.44 88.71 22.376C88.9873 22.312 89.2007 22.2373 89.35 22.152L89.574 26.024C88.742 26.3013 87.878 26.44 86.982 26.44Z" fill="#131211"/>
<path d="M106.184 8.968V26.184H101.416V24.2C100.179 25.6933 98.3869 26.44 96.0403 26.44C94.4189 26.44 92.9469 26.0773 91.6243 25.352C90.3229 24.6267 89.2989 23.592 88.5523 22.248C87.8056 20.904 87.4323 19.3467 87.4323 17.576C87.4323 15.8053 87.8056 14.248 88.5523 12.904C89.2989 11.56 90.3229 10.5253 91.6243 9.8C92.9469 9.07467 94.4189 8.712 96.0403 8.712C98.2376 8.712 99.9549 9.40533 101.192 10.792V8.968H106.184ZM96.9043 22.344C98.1629 22.344 99.2083 21.9173 100.04 21.064C100.872 20.1893 101.288 19.0267 101.288 17.576C101.288 16.1253 100.872 14.9733 100.04 14.12C99.2083 13.2453 98.1629 12.808 96.9043 12.808C95.6243 12.808 94.5683 13.2453 93.7363 14.12C92.9043 14.9733 92.4883 16.1253 92.4883 17.576C92.4883 19.0267 92.9043 20.1893 93.7363 21.064C94.5683 21.9173 95.6243 22.344 96.9043 22.344Z" fill="#131211"/>
<path d="M106.622 26.184V23.176L116.798 11.144L117.662 12.808H106.846V8.968H121.694V11.976L111.518 24.008L110.622 22.344H121.982V26.184H106.622Z" fill="#131211"/>
<path d="M139.653 8.968V26.184H134.885V24.2C133.648 25.6933 131.856 26.44 129.509 26.44C127.888 26.44 126.416 26.0773 125.093 25.352C123.792 24.6267 122.768 23.592 122.021 22.248C121.274 20.904 120.901 19.3467 120.901 17.576C120.901 15.8053 121.274 14.248 122.021 12.904C122.768 11.56 123.792 10.5253 125.093 9.8C126.416 9.07467 127.888 8.712 129.509 8.712C131.706 8.712 133.424 9.40533 134.661 10.792V8.968H139.653ZM130.373 22.344C131.632 22.344 132.677 21.9173 133.509 21.064C134.341 20.1893 134.757 19.0267 134.757 17.576C134.757 16.1253 134.341 14.9733 133.509 14.12C132.677 13.2453 131.632 12.808 130.373 12.808C129.093 12.808 128.037 13.2453 127.205 14.12C126.373 14.9733 125.957 16.1253 125.957 17.576C125.957 19.0267 126.373 20.1893 127.205 21.064C128.037 21.9173 129.093 22.344 130.373 22.344Z" fill="#131211"/>
<path d="M144.5 26.824C143.232 26.824 142.165 26.391 141.299 25.525C140.433 24.659 140 23.5765 140 22.2776C140 20.9477 140.433 19.8807 141.299 19.0765C142.165 18.2415 143.232 17.824 144.5 17.824C145.768 17.824 146.835 18.2415 147.701 19.0765C148.567 19.8807 149 20.9477 149 22.2776C149 23.5765 148.567 24.659 147.701 25.525C146.835 26.391 145.768 26.824 144.5 26.824Z" fill="#FFE70B"/>
</svg>
